<?xml version="1.0" encoding="UTF-8" standalone="no"?>
<svg xmlns:dc="http://purl.org/dc/elements/1.1/" xmlns:cc="http://creativecommons.org/ns#" xmlns:rdf="http://www.w3.org/1999/02/22-rdf-syntax-ns#" xmlns:svg="http://www.w3.org/2000/svg" xmlns="http://www.w3.org/2000/svg" version="1.1" x="0px" y="0px" width="510" height="464.5" viewBox="0 0 509.9999 464.54895" xml:space="preserve" id="svg3857"><metadata id="metadata4852"><rdf:RDF><cc:Work rdf:about=""><dc:format>image/svg+xml</dc:format><dc:type rdf:resource="http://purl.org/dc/dcmitype/StillImage"/><dc:title/></cc:Work></rdf:RDF></metadata><defs id="defs4850"/><path id="path3930" d="M 383.7 5 l -0.8 1 c 0 0 0 0 -0.1 0.1 c -0.4 0.2 -1.2 0.5 -2.7 0.9 c -3.1 0.8 -5.7 1.1 -8.2 1.5 c -1.5 0.2 -2.5 0.6 -3.4 1.2 c -0.4 0.3 -0.7 0.8 -0.9 1.2 c -0.2 0.4 -0.3 1.1 -0.3 1.1 v 0.9 l 6.5 7.7 c 0.4 1.1 0.8 2.1 1 2.8 c 0.1 0.6 0.1 0.9 -0.1 1.4 c -0.3 0.2 -0.6 0.5 -0.7 0.5 c -5 0.4 -5.5 0 -7.7 -1.1 c -1.3 -0.6 -2.7 -2.7 -3.4 -4.1 c -1.1 -2.5 -3.2 -4.1 -3.2 -4.1 l -0.2 -0.1 l -0.2 -0.1 c -4 -2.3 -9.6 -2 -15.3 -1 c -5.8 1 -13 3.4 -14.7 4.1 h 0 c -0.9 0.4 -7.8 2.6 -10.9 3.5 c -3.5 0.9 -6.1 1.8 -8 2.3 c -2.4 0.6 -16.7 4.9 -22.2 6.5 c -5.3 1.6 -8.5 2.1 -8.6 2.1 c -3.9 0.4 -6.3 0.2 -7.7 0 c -0.7 -0.1 -1.1 -0.2 -1.3 -0.3 c -0.2 -0.1 -0.1 0 -0.1 0 l -0.1 0 c 0 -0.1 0 -0.2 0 -0.2 l 0 -0.1 l 0 -5.8 v -0.1 c 0 0 0 -3.3 -3 -4.9 c -2.2 -1.2 -4.7 -1.5 -8.8 -1.7 h 0 c -4.2 -0.2 -8.4 0.2 -10.8 0.7 c -2.2 0.5 -6.5 1.7 -9.9 5.4 c -1.6 1.8 -2.4 3.6 -2.8 5 c -0.3 1.4 -0.2 2.6 -0.2 2.6 l 0 -0.3 c 0 0 0.2 3.3 0.4 5.9 v 0 c 0.1 1 0.7 1.5 1.1 2.2 c -0.3 0.2 -0.1 0.1 -0.6 0.3 c -2.2 1 -5.8 2.4 -11.2 4 c -10.5 3.1 -17.4 3.7 -17.4 3.7 l -2.4 0.2 l 0.2 2.4 c 0.1 1.8 0.8 5.6 1.4 9.3 c 0.6 3.7 1.2 7 1.2 7 c 0 0 0.3 1.6 0.6 3.5 c 0.3 1.9 0.7 3.8 0.9 4.9 c 0.4 1.7 1.5 4.9 1.5 5.1 c 0 0 0.7 2.9 3.5 4.2 c 2.6 1.2 6.4 1.5 10.4 -0.1 h 0 c 3.8 -1.5 5.3 -3.6 6.8 -5.2 c 1.4 -1.6 1.8 -2.1 1.9 -2.2 c 0 0 2.2 -2 4.7 -1.1 c 2.6 0.9 4.9 4.7 4.9 4.8 l 0.1 0.3 l 0.1 0.1 c 0 0 1.2 2.6 1.4 4.4 c -0.3 0.4 -0.9 1.1 -2.3 2.2 c -2.7 2.1 -4.3 1.8 -6.4 1.6 c -2.2 -0.2 -3.1 -0.5 -4.6 -0.2 l 0.4 0 l -3.6 0.2 l -0.1 0 c -4.2 0.6 -6.8 2.3 -6.9 2.3 c -1.8 1.1 -2.8 2.8 -3.4 4.7 c -0.6 1.9 -0.9 4.1 -0.9 6.5 c -0.1 4.8 0.7 10.3 1.7 15.7 c 1.8 9.4 3.9 16.2 4.5 18.3 c -17.6 2.4 -37.6 6.3 -48.9 9.2 h 0 c -6.1 1.6 -9.4 3.3 -11.4 4.7 c -1 0.7 -1.6 1.4 -2.1 2.1 c -0.2 0.3 -0.2 0.5 -0.3 0.7 c -1.5 2.5 -1.5 5.1 -0.7 6.7 c 0.8 1.7 2.2 2.5 2.2 2.5 l 0.3 0.2 l 0.3 0.1 c 0 0 2.7 0.8 3.3 4 v 0 c 0.5 2.5 -2.9 5.5 -2.9 5.5 l -0.1 0 l -0.1 0.1 c 0 0 -5.2 4.3 -12.9 5.6 c -4.2 0.7 -6.9 1.1 -9 0.9 c -2 -0.2 -3.5 -0.8 -5.8 -2.7 c -1.5 -1.2 -1.6 -2.2 -1.2 -3.6 c 0.4 -1.4 1.6 -3 2.6 -3.7 c 3.3 -2.4 5 -4.8 5.6 -6.5 v 0 l 0 0 c 0.7 -1.7 0.2 -3.3 0.2 -3.3 l -0.2 -0.7 l -3.5 -3.2 l -0.2 -0.1 c -3.2 -2.1 -7.7 -2.8 -12.8 -3.1 c -5.1 -0.3 -10.9 0 -16.4 0.4 c -9.5 0.8 -16 1.9 -18 2.3 c -0.3 -2.1 -1.3 -7.5 -1.1 -12.3 c 0.1 -2.9 0.5 -4.8 0.7 -6.1 c 0.3 -1.2 0.4 -1.5 0.4 -1.5 l 0.1 -0.1 l 0.3 -1 l 0 0 c 0 0 2.3 -6.9 5.3 -11.3 l -0.5 -0.3 l 0.5 0.3 c 0 0 1.7 -2.6 4.1 -2.8 c 3.3 -0.3 3.5 0.7 6.1 1 c 3.4 0.4 5.6 0.2 7.1 -0.2 c 0.8 -0.2 1.3 -0.5 1.8 -0.8 c 0.4 -0.3 0.7 -0.7 0.8 -0.8 c 4.8 -3.9 7 -8.8 7 -8.9 c 1.6 -4 1.7 -8.1 1.2 -11.3 c -0.3 -1.6 -0.6 -3 -1.1 -4.1 c -0.4 -1.1 -0.8 -2 -1.6 -2.8 v 0 h 0 c -1.9 -2.1 -5.1 -4.4 -5.3 -4.5 h 0 c 0 0 -1 -0.8 -2.4 -1.2 c -1.2 -0.3 -3 0 -4.7 0.6 c 0.3 -2.1 0.5 -4.3 1.5 -6.8 c 1.6 -3.8 5 -10.5 5.1 -10.6 l 0 -0.1 l 0 0 c 0.1 -0.1 5.1 -8.6 7.2 -14.3 c 2.2 -5.7 2.2 -10.3 2.2 -10.3 V 45.5 l -0.5 -0.7 c 0 0 -1 -1.2 -2 -2.6 c -0.7 -0.9 -1.2 -1.6 -1.7 -2.2 c 3.9 0.8 7.1 -0.9 7.1 -0.9 l 0.1 -0.1 l 0.1 -0.1 c 5.7 -4.3 8.8 -11.5 8.8 -11.5 l 0 0.1 l 5.4 -10.9 l -5.3 -8.5 l -1 -0.2 c 0 0 -0.3 -0.1 -0.4 -0.1 c -0.1 0 -0.3 0 -0.4 0 c -0.3 0 -0.6 0.1 -1 0.2 c -0.8 0.2 -2.1 0.5 -4.2 1.2 c -3.1 1 -4.1 1.7 -5.2 2.2 l -1.5 -2.2 l -0.5 -0.5 l 0 0 c 0 0 -0.3 -0.2 -0.4 -0.3 c -0.2 -0.1 -0.3 -0.2 -0.5 -0.3 c -0.4 -0.2 -0.8 -0.3 -1.3 -0.3 c -1 -0.1 -2.3 0 -4.3 0.5 c -4.4 1 -9.5 3.8 -12.2 7.4 c -1.1 1.5 -1.8 2.7 -2.2 3.6 c -0.1 0.3 -0.1 0.3 -0.2 0.5 c -8.1 6.9 -14.6 9.8 -14.7 9.9 c -2.3 0.4 -3.9 1.6 -3.9 1.6 l 0 0 l 0 0 C 77.1 37.4 68.7 47.3 68.7 47.3 l 0.5 -0.4 c 0 0 -0.4 0.3 -0.6 0.6 c -0.2 0.3 -0.4 0.6 -0.6 1 c -0.5 0.9 -0.6 1.5 -0.8 2.3 c -0.1 0.4 -0.2 0.8 -0.3 1.2 c -0.1 0.4 -0.2 0.5 -0.1 1.5 c 0 0.1 0.1 0 0.1 0.2 c -4 5.2 -6 7.4 -6.3 7.7 c 0 0 -0.3 -0.1 -0.3 -0.1 l -0.2 0 l -0.2 0.1 c -1.2 0.3 -1.9 0.9 -2.7 1.3 c -0.8 0.5 -1.5 0.9 -1.5 0.9 l -0.4 0.3 l -0.3 0.4 c -2.3 3.2 -7 11.2 -7.6 12.1 c -0.3 0.1 -0.5 0.2 -0.7 0.4 l -0.3 -0.1 l -4.9 2.7 l -0.3 0.5 C 26.1 104.8 15.1 132.6 9.5 162.3 l -0.1 0.5 l 0.3 1.3 l -1 2.2 l 0 0.3 C 6.3 180.6 5 194.9 5 209.6 c 0 9.5 0.5 18.9 1.6 28.2 l 0 0 l 0.6 4.9 l 0 0 c 4.5 33.8 15.7 65.5 32.3 93.7 l 1.5 2.5 v 0 c 43.8 72.3 123.3 120.6 214 120.6 c 130.8 0 238.2 -100.5 249.1 -228.4 l 0.1 -0.6 l -0.9 -2.1 l 1.2 -1.9 l 0 -0.6 c 0.3 -5.4 0.5 -10.9 0.5 -16.4 c 0 -22.4 -2.9 -44.1 -8.5 -64.8 l -0.1 -0.5 l -1.5 -1.9 l 0.5 -1.8 l -0.2 -0.6 C 486.8 111 472.8 83.5 455.3 59.9 l -0.4 -0.5 l -4.9 -2 l -2.1 1.5 l -1.4 0.9 c -0.4 -0.4 -0.6 -0.6 -0.9 -1.1 c -1.7 -2.3 -3.2 -4.2 -3.2 -4.2 l -0.1 -0.1 l -0.1 -0.1 c -5 -5.5 -8.3 -10.1 -9 -11.2 l 0.2 -0.3 l -1.5 -4.6 l -0.1 -0.2 c -1.4 -2.8 -4 -5.4 -6.3 -7.6 c -2.3 -2.2 -4.3 -3.8 -4.3 -3.8 l -0.1 -0.1 l -0.1 -0.1 c 0 0 -2.8 -2 -5.3 -3 c -2.4 -0.9 -4.8 -1 -4.8 -1 l -1.2 0 l -0.2 0.3 C 403.4 18.3 388.8 6.7 388.8 6.7 l -0.4 -0.3 z m 1.1 5.4 l 1.4 0.4 c 0.6 0.4 16.7 13.5 22.4 17.2 l 1.8 1.2 l 1.4 -1.7 c 0.6 0.1 1.2 0.1 2.2 0.4 c 1.3 0.5 4.1 2.4 4.2 2.4 c 0.1 0.1 1.9 1.5 4 3.5 c 2.1 2 4.5 4.7 5.3 6.2 l 0.6 1.9 l -0.7 1.2 l 0.9 1.3 c 0 0 4.5 6.4 10.2 12.7 c 0 0 1.5 2 3.3 4.4 c 1.6 2 3.2 4 4.6 5.4 c -1.4 0.6 -3.3 1.3 -5.9 2 c -5.4 1.5 -10.6 3.9 -10.6 3.9 c 0 0 -4.3 1.4 -2.7 4.9 c 1.6 3.5 4.1 5.2 4.1 5.2 c 0 0 3.4 3.4 3.6 5.9 c 0.1 2.6 -1 3.7 -3.7 5.2 c -2.7 1.5 -5.2 1.8 -5.2 1.8 c 0 0 -6.5 1.2 -9.7 -1.9 c -3.2 -3 -3.8 -8.1 -3.8 -8.1 c 0 0 -0.2 -4.3 -5.6 -6.1 c -5.3 -1.8 -11.9 2.1 -11.9 2.1 c 0 0 -5.2 2.7 -10.7 6.3 c -5.5 3.6 -16 8 -22.5 10.3 l -1.2 1 l 1.2 -0.9 c -2.7 -2.5 -16.8 -19.2 -19.6 -23.1 c -2.7 -3.9 -3.2 -4.8 -3.6 -6.1 c -0.5 -1.3 0.8 -4.3 2 -5.6 c 1.2 -1.4 2.5 -1.6 5.4 -1 c 2.8 0.6 4.7 1.9 9.1 0.4 c 4.5 -1.4 4.7 -4.8 5 -8.2 c 0.3 -3.4 -3.8 -10.7 -7.1 -14.2 c -3.3 -3.5 -8 -4.1 -11.2 -3.9 c -3.2 0.2 -5.1 2.5 -6.9 3.6 c -1.9 1 -5.4 2.1 -6.9 1.4 c -1.6 -0.7 -4 -1.4 -6.7 -6.1 c -1.8 -3.3 -3.2 -5.9 -4.2 -7.8 c 1 -0.3 1.7 -0.5 2.9 -0.8 c 3.6 -0.9 9.8 -3 11.5 -3.6 v 0 c 0.9 -0.4 8.7 -2.9 13.7 -3.8 h 0 c 5.1 -0.9 10.1 -0.5 11.9 0.4 c 0.2 0.2 1.3 1.2 1.7 2.1 c 0.9 2 2.5 4.9 5.6 6.4 h 0 l 0 0 c 2.2 1.1 4.7 2 10.3 1.5 c 0.2 0 0.3 0 0.5 0 c 0.3 -0.1 0.7 -0.2 1 -0.3 c 0.7 -0.3 1.6 -0.9 2.6 -1.9 l 0.3 -0.3 l 0.2 -0.4 c 0.8 -1.7 0.8 -3.5 0.4 -5 c -0.4 -1.4 -0.9 -2.5 -1.3 -3.6 l -0.1 -0.4 l -4.3 -5.1 c 2.2 -0.3 4.5 -0.6 7.5 -1.3 c 1.7 -0.5 2.8 -0.9 3.5 -1.2 z m -263.7 2.3 l 3.4 5 l 2 -1.1 c 0 0 1.8 -0.9 4.2 -1.9 c -1.4 3.1 -3.7 7.8 -6.9 11.8 c 0 0 -1.8 2.7 -3.2 2 c -1.4 -0.7 -3 -0.7 -4.4 -0.4 c -1.4 0.3 -5.6 1.7 -9.5 6.9 c -3.8 5.2 -4.3 9 -2.2 10.2 c 2 1.1 4.8 -0.3 6.6 -1.8 l 4.3 -0.7 c 0 0.1 0 0.2 0 0.2 c -0.1 0.5 -0.8 6.6 -7.9 19 c -1.8 3.1 -4.1 7.7 -5.2 9.9 l 0 0.1 c 0 0 -0.1 -0.1 -0.1 -0.1 c -11.6 2.1 -20.2 4.8 -23.2 6 c -3 1.1 -3 0.4 -3 0.4 c -1 -1.2 2.1 -5 2.1 -5 c 0 0 3.2 -4.3 4.4 -8.3 c 0.9 -3 -2 -3.4 -3.5 -3.5 c -0.5 0 -0.8 0 -0.8 0 c -3.7 0.6 -6.3 2.3 -9.4 6 c -2.4 2.8 -3.8 6.7 -4.3 8.8 c -0.3 1.3 -0.9 2.5 -0.9 2.5 c 0 0 -0.4 0.8 -2.2 1.6 c -2 0.9 -6 1.9 -6 1.9 c 0 0 -2.6 0.2 -4.5 -0.7 c -0.6 -0.3 -1.7 -0.2 -2.7 -0.1 l 0.2 -0.1 c 0 0 0.2 -0.2 0.5 -0.4 c 0.3 -0.2 0.7 -0.4 0.6 -0.4 l 1.1 -0.3 l 0.5 -0.8 c 0 0 5.4 -9 7.5 -12.1 c 0.2 -0.1 0.4 -0.3 0.9 -0.6 c 0.3 -0.2 0.4 -0.2 0.6 -0.3 l 0.8 1.1 l 2 -1.8 c 0 0 2.7 -2.4 8.6 -10.3 l 0 0 l 1.7 -2.1 l -1.7 -1.1 c 0 -0.1 0 -0.2 0.1 -0.3 c 0.2 -0.6 0.5 -1.5 0.4 -1.3 c 0.1 -0.1 0.1 -0.1 0.1 -0.1 l 0.1 -0.2 c 0 0 8.3 -9.8 15 -15.4 c 0 0 0.7 -0.6 2.1 -0.7 l 0.3 0 l 0.3 -0.1 c 0 0 7.5 -3.2 16.5 -11 l 0.6 -0.6 l 0.1 -0.8 c 0 0 -0.1 0.1 0.2 -0.5 c 0.2 -0.5 0.7 -1.4 1.7 -2.7 c 1.4 -1.9 6.4 -4.9 9.4 -5.6 c 1.5 -0.3 2.1 -0.3 2.5 -0.3 z m 137.6 12.1 c 3.8 0.2 5.7 0.6 6.7 1.1 h 0 c 0.2 0.1 0.5 0.9 0.5 1 l 0 5.4 l 0 -0.2 c 0 0 -0.1 0.8 0.1 1.8 c 0.2 1 1 2.5 2.6 3.2 c 0.2 0.1 0.3 0.2 0.7 0.3 c 0.5 0.2 1.2 0.4 2.2 0.5 c 1.9 0.3 4.8 0.5 9 0 h 0.1 l 0.1 0 c 0 0 3.6 -0.6 9.2 -2.3 c 5.5 -1.6 20.3 -6 22 -6.5 c 0.1 0 0.3 -0.1 0.4 -0.1 c 0.6 1.3 1.5 3 3.6 6.7 c 4.4 7.5 12 10.5 15.3 10.1 c 2.9 -0.3 7.8 -1.7 9.8 -3.8 c 1.9 -2.1 3.9 -1.9 3.9 -1.9 c 4.2 -0.3 5.2 3.2 8.7 8.2 c 3.4 5 1.3 8.8 1.3 8.8 c -2.3 3 -4.8 2.4 -7.2 1.9 c -1.8 -0.4 -1.9 -0.6 -4 -1 c -6.3 -0.8 -8.5 3.9 -8.5 3.9 c -4.5 7 0.8 12.1 0.8 12.1 c 0 0 12 16.1 21.1 26 c -6.9 2.4 -15.9 5.4 -15.9 5.4 c 0 0 -12.2 4.5 -20.2 5.6 c -8 1.1 -9.8 -0.1 -10.9 -1.2 c -1.1 -1.1 0.2 -4.9 0.2 -4.9 c 0 0 3.3 -6.7 1.7 -10.2 c -1.6 -3.5 -11.9 -4.4 -12.1 -4.4 c -0.2 0 -11.3 -1.3 -21.6 4.5 c -9.2 5.2 -10.4 8 -10.4 8 c 0 0 -2.9 4.6 0.5 9.1 c 3.9 5.1 9.1 5.6 9.1 5.6 c 0 0 5 0.4 6.1 1.8 c 1.2 1.5 0.4 3 0.4 3 c 0 0 -1.6 4.5 -10.8 6.4 c 0 0 -15.4 4.5 -44.2 8.6 c -5.7 -20.7 -6.1 -33.8 -6.1 -33.8 c -0.5 -4.3 0.2 -5.9 2.3 -7.1 c 0.8 -0.3 2 -0.7 3.7 -1 l 3.5 -0.2 l 0.1 0 c 0.6 0 1.2 0.1 1.9 0.1 c 0.5 0 0.4 0 1.4 0.1 h 0 c 1.4 0.1 3.3 0.1 5.5 -0.5 c 1.1 -0.3 2.2 -0.6 3 -1.1 c 2.1 -1.1 7.7 -4.2 7.3 -10.5 c -0.4 -6.3 -5.4 -13.7 -9.5 -16.3 c -0.5 -0.3 -1.1 -0.6 -1.6 -0.8 c -0.5 -0.2 -1.1 -0.4 -1.6 -0.5 c 0 0 0 0 0 0 c -2.2 -0.5 -4.6 -0.2 -6.5 0.5 c -1 0.4 -1.9 0.8 -2.6 1.4 c -2.9 2.2 -4.1 5 -5.9 5.9 c -1.3 0.7 -3.1 2 -5 2.3 c -0.6 0.1 -1.3 0.1 -2 0 c -2.7 -0.6 -2.8 -6.7 -4 -13.4 c -0.7 -4.2 -1.2 -7.2 -1.6 -9.1 c 2 -0.2 6.4 -0.6 15.2 -3.2 c 5.7 -1.7 9.5 -3.2 11.9 -4.3 c 2.4 -1.1 3.6 -1.9 3.6 -1.9 l 3.8 -2.7 l -4.3 -1.6 c 0 0 -0.6 0 -0.8 -1.2 c -0.2 -2.4 -0.4 -5.7 -0.4 -5.7 l 0 -0.1 l 0 -0.1 c 0 0 0 0 0.1 -0.6 c 0.1 -0.6 0.5 -1.6 1.7 -2.9 c 2.2 -2.5 5.5 -3.5 7.3 -3.9 c 1.6 -0.3 5.8 -0.8 9.5 -0.6 z M 56 161.4 c -13.2 -0.1 -6.2 -10.3 -6.2 -10.3 c 0 0 3.1 -5.4 3.6 -8.6 c 0 0 1.1 -8.5 -6.9 -7.9 c -8 0.5 -9.6 7.5 -9.6 7.5 c 0 0 -0.5 3.9 -0.4 6.8 c 0.1 2.9 0 9 -3.6 12.4 c -3.6 3.5 -7.4 2.4 -7.4 2.4 c 0 0 -6.5 -2.8 -7.7 -3.5 c -1 -0.5 -1.9 -0.6 -2.8 -0.4 c 5.5 -26.6 15.3 -51.7 28.7 -74.4 l 1.3 -1.2 l -1.4 2.1 c 0.7 -0.1 1.2 -0.3 1.2 -0.3 c 0 0 2 -0.3 5.4 0.6 c 4.5 1.2 10 -2.4 10 -2.4 c 0 0 4.2 -2.5 6.2 -6.7 l 1.7 -4.9 c 0 0 1.4 -4.7 5.4 -6.2 c 0 0 1.5 -0.8 4 -0.9 c 2.5 0 1.9 1.7 1.9 1.7 c 0 0 -0.3 1.1 -2.8 4.4 c -2.6 3.3 -3.3 5.8 -3.3 5.8 c 0 0 -1.5 3.5 0.9 4.6 c 0 0 1.2 0.7 4.6 -0.4 c 3.4 -1.1 14.7 -4.1 21.5 -5.2 l 0.1 0 l 0 0 c -1.3 3.7 -2.9 9.4 -2.3 12.7 c 1 4.9 5.6 4.9 5.6 4.9 c 0 0 0.9 0 2.3 -0.3 l 0.5 0.2 c 0 0 0.5 0.1 0.8 0.1 c 0.3 0 0.7 0 1.1 -0.1 c 0.9 -0.1 1.9 -0.5 3.4 -1.2 c 0.3 -0.1 0.4 -0.1 0.6 -0.2 c 1.7 1.6 2.1 6.1 2.1 7 c 0 1.3 0 8.4 -5 11.9 c 0 0 -2 1.5 -4.8 1.5 c -2.8 0 -4.6 -0.8 -4.6 -0.8 c 0 0 -4.8 -1.3 -7.7 0.4 c -2.9 1.7 -6.4 5.3 -9.2 10.5 c -2.8 5.2 -5.1 14.5 -4.9 21.3 c 0.1 5.4 0.8 10.5 1.4 14 c 0 0 -11.2 2.9 -23.7 2.9 z M 455.1 68.2 c 15.2 21.6 27.3 46.1 35 71.9 c -0.2 0 -0.4 0 -0.6 0 c -1.9 0.4 -2 1.8 -4.9 2.2 c -2.9 0.5 -6.2 1.5 -9.5 6.4 c -3.3 4.9 0 11 0 11 c 0 0 1.7 2.9 2.6 4.4 c 0.8 1.5 5.2 10.8 0.2 17.5 c 0 0 -2.7 3.1 -7.4 4.2 c -4.2 0.9 -3.1 -4 -3.5 -6.6 c 0 0 -0.6 -11.1 -6 -17.4 c -4.7 -5.6 -13.3 4.3 -17.6 7.6 c -4 3.1 -15.7 15.1 -32.4 23.9 l -0.6 -8.1 c 0 0 -0.4 -4.3 -2.7 -11.1 c -4.8 -13.7 -9.4 -20 -9.4 -20 c 0 0 -2.9 -6.4 -9.6 -6.4 c -6.5 0 -6.9 5.9 -6.9 5.9 c 0 0 -1.5 4.7 -4 6.1 c -2.4 1.4 -9.6 5.6 -13.3 1.4 c -4.6 -5 -7.1 -10.8 -7.6 -16.4 c -0.5 -5.6 1.8 -7.8 1.8 -7.8 c 0 0 0.5 -1.4 7.8 -1.4 c 8.2 0 9.8 -2.5 9.8 -2.5 c 0 0 1.6 -1.4 1.4 -4.7 c -0.1 -3.2 -1.4 -10.2 -3.8 -14.6 c -1.6 -2.9 -5.1 -7.5 -8.2 -11 l -4.7 -0.8 v 0 l 0.5 1.3 l 4.2 -0.5 c 2.9 -1.1 6.8 -2.6 11.1 -4.5 c 8.7 -3.9 12.9 -7.2 16.9 -9.5 c 0 0 8.8 -5.4 14 -5.3 c 0 0 1.2 0 1.3 1.6 c 0.1 1.6 0.5 4 1 5.3 c 0.5 1.4 3.6 8.8 13.3 9.9 c 9.7 1.1 13.8 -5.4 13.8 -5.4 c 0 0 3.3 -5.1 -2.4 -11.2 c 0 0 -4.7 -5 -4.8 -5.4 c 0 0 -0.5 -0.7 0.8 -1.1 c 1.2 -0.4 13.8 -3.9 19.7 -6.4 l 1.3 -0.6 c 0 0 0.9 -0.3 1.2 -0.5 c 0.8 -0.4 1.7 -1 2.3 -1.6 z M 299.7 94.8 c 3.4 0 5.8 0.2 5.8 0.2 c 0 0 4 0.4 3.3 3.1 c -0.7 2.7 -2.9 7.2 -3 9.5 c -0.1 2.3 0 5 4.6 6.9 c 4.5 1.9 11 1.3 11 1.3 c 0 0 6.7 -0.3 17.7 -3.9 c 11 -3.5 22.3 -7.6 22.3 -7.6 c 5.2 -3 -0.6 -1.8 -0.8 -2.2 l 0.8 2.2 l 0 0.1 c 9.6 9.5 11.4 21 11.4 21 c 0 0 1.3 4.5 -1.4 4.9 c -2.3 0.3 -7.8 0.3 -7.8 0.3 c 0 0 -2.1 0.2 -5.4 0.9 c -3.4 0.7 -5.5 4.3 -6 6.7 c -0.5 2.5 -1.9 9.3 3.8 19.9 c 5.7 10.7 12.9 10.2 12.9 10.2 c 6.3 -0.5 8.2 -1.7 11.8 -4.1 c 3.5 -2.4 5.2 -7.8 5.4 -8.8 c 0.2 -1 0.7 -2.1 1.5 -2.1 c 0.8 0 0.6 0 2.5 -0.3 c 1.9 -0.3 3.4 1.1 5 4.3 c 1 2.1 6.5 11.1 8.1 16.5 c 1.6 5.4 3 10.7 3.1 15.5 c 0.1 1.9 0.3 4.1 0.6 6 v 0 c -8.1 4 -26.3 12.9 -38.2 17 c 0 0 -9.1 3.7 -12.8 3.8 c 0 0 -0.8 0 -0.2 -0.9 c 0.6 -0.9 1.3 -1.6 2.5 -3.6 c 1.1 -2 3.1 -6.6 3.1 -11.3 c 0 -4.7 -5.4 -9.3 -13 -8.5 c -7.6 0.8 -14.8 2.9 -23.5 6.3 c -8.7 3.4 -16.2 10.5 -17.2 16.4 c -1 5.9 5.4 9.3 5.4 9.3 c 0 0 7.2 3.6 8.1 5.6 c 0.9 2 0.2 3.8 0.2 3.8 c 0 0 -0.6 2 -3.8 3.8 c -3.2 1.8 -11.8 6.3 -11.8 6.3 c 0 0 -10.7 5.9 -27 7.3 c 0 0 -14.8 1.3 -23.4 1.7 c -0.1 0 -0.2 0 -0.3 0 c 0.2 -5.5 -0.1 -10.3 -0.6 -14.6 v 0 c -0.4 -2.9 -0.9 -5.5 -1.5 -7.8 v 0 c -0.3 -1.2 -0.7 -2.3 -1 -3.3 v 0 c -0.4 -1.1 -0.8 -2 -1.2 -3 v 0 c -0.4 -0.9 -0.9 -1.8 -1.3 -2.6 c -3.9 -6.9 -10.3 -10.5 -13.4 -12 c -0.8 -0.4 -1.8 -0.7 -3 -1 c -1.2 -0.3 -2.6 -0.4 -4 -0.5 c -1.7 -0.1 -3.5 0.1 -5.3 0.3 c -1.1 0.2 -2.2 0.4 -3.1 0.7 l 0 0 c -1.2 0.5 -2.2 0.9 -3.1 1.3 l 0 0 c -0.8 0.4 -1.5 0.9 -2 1.4 c -0.3 0.3 -0.6 0.7 -0.9 1 c -0.2 0.2 -0.4 0.4 -0.6 0.6 c 0 0 0 0 0 0 c -0.4 0.6 -0.8 1.3 -1.3 2.1 c 0 0 0 0 0 0 c -0.9 1.6 -1.9 2.3 -2.7 2.6 c -0.8 0.3 -1.3 0.3 -1.3 0.3 c 0 0 -6.9 0.2 -9.2 -10.4 c -1.6 -7.4 -1.1 -12.3 -0.3 -15.4 c 0.2 -0.8 0.4 -1.4 0.7 -1.9 l 0 0 c 0.2 -0.5 0.5 -1 0.7 -1.3 l 0 0 c 0.4 -0.7 0.7 -1 0.7 -1 l 0 0 c 0 0 0.2 -0.2 0.5 -0.5 c 0.6 -0.5 1.7 -1.3 3.7 -1.9 c 0.7 -0.2 1.5 -0.4 2.4 -0.6 c 5.1 -0.7 8.4 0.6 12.3 1.5 c 3.6 0.9 6.5 0.5 10.7 -1.4 c 0.3 -0.2 0.6 -0.2 1 -0.4 c 1.2 -0.6 2.3 -1.3 3.1 -2.1 c 0.4 -0.4 0.8 -0.8 1.2 -1.3 l 0 0 c 0.7 -0.9 1.2 -2 1.5 -3.2 c 0.5 -1.8 0.6 -4 0.2 -6.7 c -1 -6.8 -1.2 -8.4 -7.2 -29 c 13.1 -1.8 22.1 -3.4 38 -7.1 c 0 0 14.8 -2.6 17.8 -8 c 1.8 -3.2 5 -7.5 -0.2 -11.8 c 0 0 -0.6 -0.8 -3.9 -1.5 c -3.2 -0.7 -5.7 -1.2 -8.4 -3.2 c -2.7 -2 -2.7 -4.2 -2.7 -4.2 c 0 0 -0.2 -2.2 4.2 -4.7 c 0 0 4.1 -3 12.3 -5.6 c 4.1 -1.3 8.5 -1.7 11.9 -1.7 z M 81.1 183.7 c -0.1 4.4 -0.7 13.8 -5.4 16 c 0 0 -1.6 0.8 -4.2 -1.2 c -2.6 -2 -5.5 -2.1 -6.6 -2.1 c -0.4 0 -1.1 0.1 -2 0.3 c -2 0.6 -4.9 2.2 -6.3 6 c -2 5.6 -1.8 13.1 -1.4 17.5 c 0.4 4.4 4.4 11.4 9.3 11.4 c 0 0 2.2 0.7 5 -2.2 c 2.8 -2.8 4.4 -3.1 5.6 -3.1 c 1.2 0 3.6 1.3 5.2 13.8 c 1.5 11.9 2.6 21.9 2.5 32.7 c 1.2 1.4 2 3.1 3 4.8 c 3.9 -0.4 10.3 -1.1 17.6 -1.9 c 12.3 -1.3 20.5 -2.6 28.2 -1.5 c 7.6 1.1 10.1 7.1 10.1 7.1 c 0 0 0.5 1.5 -1.2 2.6 c -1.7 1.1 -3.6 2.7 -4.6 4.3 c -1 1.7 -2 5.2 0.8 9.9 c 2.8 4.7 10.4 7.7 16.9 6.9 c 6.5 -0.8 16.2 -3.3 22 -4.8 c 6.2 -1.6 11.8 -4.7 12.5 -9.6 c 0.7 -4.9 -7.4 -11.1 -7.4 -11.1 c 0 0 -3.9 -3 -4.4 -3.6 c -0.5 -0.7 0.5 -1 0.5 -1 c 0 0 4.6 -1.1 6.6 -2 c 2 -0.9 7.4 -3.1 16.3 -5.9 c 8.9 -2.8 27.2 -6.1 27.2 -6.1 c 0 0 10.1 -1.6 22.8 -2.6 l 2.8 -0.7 l -2.8 0.7 c 0 1.2 -0.1 2.4 -0.1 3.7 c -0.7 18.8 3.5 28.5 3.5 28.5 c 2.4 5.2 5 8.9 8.5 11.3 c 3.5 2.4 8.3 0.8 9.8 0 c 1.5 -0.8 5.8 -2.7 9.4 -5 c 3.6 -2.3 3.5 -3.3 7.9 -7.3 c 4.4 -4 10.1 -2.9 10.1 -2.9 c 0 0 5.4 0.1 8.5 6.4 c 3.1 6.2 2.5 15.1 1.7 18.3 c -0.8 3.2 -2.2 5.3 -5.2 4.8 c -3 -0.6 -8 -1.1 -9.8 -1.1 c -1.8 -0.1 -6.9 -0.2 -11.6 1 c -4.6 1.2 -10.7 4.5 -16.6 14 c -4.6 7.4 -2.3 14.6 -1.3 17.5 c 0.8 2.2 3.1 5.4 5.1 9.2 l 3.7 1.2 l -0.4 -1.4 l -3.3 0.2 c -6.2 0.8 -16.8 2.3 -27.2 4.8 c -12.7 3.1 -24.9 5.6 -33.5 11.2 c 0 0 -6.5 4.3 -2.7 8.5 c 3.7 4.2 7.6 6 7.6 6 c 0 0 2.3 1 2.3 1.6 c 0 0.8 -0.1 1.5 -1.8 2.5 c 0 0 -6.8 4 -19.9 4.2 c -13.2 0.2 -19 0.1 -22.9 -3.4 c -3.2 -2.9 0.8 -9 0.8 -9 c 0 0 1.6 -3 0 -7.1 c -1.6 -4.1 -10.8 -4.1 -10.8 -4.1 l -12.7 -0.6 c -15 -0.4 -34.9 -2.1 -43.7 -3.2 c 0 0 -0.1 0 -0.2 0 v 0 c -0.1 -0.1 -0.2 -0.3 -0.2 -0.4 c 0 0 -9.1 -16.4 -8.1 -22.4 c 0 0 0.3 -4 6 -5.8 c 4 -1.2 3.5 2.6 15.1 4.7 c 0 0 10.1 2.7 12.7 -4.6 c 2.6 -7.3 -2.8 -16.5 -2.8 -16.5 c 0 0 -7 -12.9 -15.8 -13.4 c -4.6 -0.3 -3.4 2.8 -10.3 4.5 c 0 0 -9.3 0.9 -12.2 -4.7 c -3.6 -6.7 -5.1 -14.4 -4.9 -19.5 c 0.1 -4.9 0.3 -5.2 0.6 -6.7 c 0.2 -1 0.9 -2.8 1.2 -5.5 c 0 0 3.7 -5.2 -3.6 -5.1 c -1.6 0.2 -3.5 0.4 -5.4 0.5 c -4.9 0.3 -12 -0.3 -20.9 -2.9 c -8.9 -2.6 -14.4 -7.5 -15.2 -10.4 c -0.6 -2 0.2 -4.8 0.2 -4.8 c 0 0 1.7 -6.4 0.6 -11.7 c -1.1 -5.3 -2.8 -9.4 -7.9 -12.5 c -5.1 -3.1 -8 -2.5 -8 -2.5 c 0 0 -4.6 -0.7 -4.4 7 c 0.2 7.7 1.1 11 1.1 11 c 0 0 0.9 2.7 -0.5 3.1 c -1.4 0.3 -3.6 -1.7 -3.6 -1.7 c 0 0 -3.5 -3.2 -6.3 -6.4 l -0.5 -4 v 0 C 10.4 228.1 9.9 218.9 9.9 209.6 c 0 -14.3 1.2 -28.3 3.6 -41.9 l 1.3 -3 c 1 0.2 1.9 0.6 1.9 0.6 c 0 0 5.5 3 8 3.5 c 2.5 0.5 4.2 -0.3 5.8 -1.4 c 2.6 -1.8 5.6 -5.4 6.8 -8.9 c 1.1 -3.1 1.4 -11.6 1.4 -11.6 l 0 0.1 c 0 0 0 -2 -0.1 -2.5 c -0.1 -0.5 -0.4 -2.7 1 -3.8 c 1.3 -1.1 2.2 -1.7 5.6 -1.8 l 0 0 c 3.3 -0.1 4.3 1.8 4.3 1.8 c 0 0 1.1 1.6 1.1 2.6 c 0 1 -0.3 1.7 -0.3 1.7 c 0 0 -1.8 3 -2.4 4.5 c -0.6 1.5 -3.1 6.4 -2.4 10.6 c 0.7 4.1 7.2 6.1 7.2 6.1 c 0 0 5.2 1.2 12.5 0.1 l 15.2 -2.4 c 0.4 5.5 0.8 16.3 0.8 19.9 z m 143.9 -40.3 c 0 0 2.5 10 4.4 16.4 c 1.9 6.4 2.7 12.8 3 14.1 c 0.3 1.3 0.2 3.7 -1.5 5.1 c -1.7 1.4 -6 2.6 -6.9 2.7 c -0.9 0.1 -2.6 -0.2 -4.8 -1 c -2.2 -0.8 -4.5 -0.9 -4.5 -0.9 c 0 0 -5.4 -0.9 -11.1 0.8 c -5.7 1.7 -10.1 7.6 -10.4 15 c -0.3 7.3 -0.3 11.1 2.6 17.6 c 2.9 6.5 8 10.2 12 10.3 c 3.9 0.1 7.1 -2 9.4 -5.1 c 2.2 -3.2 2.9 -3.6 2.9 -3.6 c 2.7 -1.5 9.4 -2.1 12.9 -0.8 c 3.4 1.3 9.7 5.2 13.2 13 c 2.8 6.3 3.7 13.3 3.5 26 l 2.8 2.2 l 0.1 -1.5 l -2.9 -0.7 c -8 0.7 -17.2 1.7 -17.2 1.7 c 0 0 -20.8 3 -39.9 8.8 c -16.2 5 -19.3 7.7 -19.3 7.7 c 0 0 -3.5 2.9 -0.6 7 c 0 0 1.7 2.6 5 5.2 c 3.3 2.6 6 5.1 5.6 6.4 c -0.4 1.3 -1.4 1.9 -1.4 1.9 c 0 0 -4.7 4.2 -23.8 7.4 c 0 0 -12.3 2.4 -16.1 -1.3 c -3.8 -3.7 -2.1 -6.2 -2.1 -6.2 c 0 0 0.3 -0.8 3 -2.6 c 0 0 4.6 -2.9 3.1 -8.4 c -1.5 -5.5 -10.3 -12.4 -19.9 -12.3 c 0 0 -11.2 0 -39.8 3.7 c 0 0 0 0 -0.1 0 c 0 -1.3 0 -2.6 -0.1 -4 c -0.4 -8.1 -1 -20.5 -2.1 -27.7 c -1.1 -7.2 -3.1 -18.4 -9.7 -18.8 c 0 0 -3.3 -0.3 -7.9 4.3 c -4.3 4.2 -8.2 -3.4 -8.4 -8.1 c -0.3 -5.4 0.6 -10.9 2 -13.6 c 1.3 -2.6 5.1 -2.8 5.8 -2.7 c 0.7 0.1 2.7 0.8 5.1 2.3 c 2.4 1.5 5.6 1.5 7.6 -0.4 c 1.9 -1.9 4.6 -4.2 5.7 -12.6 c 1.1 -8.5 1.1 -17.2 0.1 -27.7 l 0 -0.1 c 3.9 -0.7 10.4 -1.8 17.4 -2.5 c 11.3 -1.1 23.2 -1.3 28.3 -0.6 c 0 0 2.4 0.3 2 1.1 c -0.3 0.7 -2 2 -2 2 c 0 0 -0.7 0.4 -3.2 3.2 c -2.5 2.8 -3.3 5.6 -3.4 8.1 c -0.1 2.5 2.5 9.7 11.7 11.6 c 9.2 1.9 19.8 -1.7 19.8 -1.7 c 0 0 6 -1.4 12.1 -6.8 c 0.2 -0.1 0.2 -0.2 0.5 -0.4 c 0.3 -0.3 0.6 -0.5 0.9 -0.8 c 0.3 -0.3 0.4 -0.6 0.7 -0.9 c 0.1 -0.1 0.1 -0.2 0.2 -0.3 c 5.1 -6.6 -0.8 -13.9 -0.8 -13.9 c 0 0 -1.1 -1.5 -3.1 -2.1 c 0 0 -0.9 -0.2 -0.4 -0.8 c 0.3 -0.3 0.9 -1.3 2.3 -2.3 c 0.9 -0.6 2.2 -1.3 4.4 -2.1 c 0 0 0 0 0.1 0 c 4.9 -1.3 19.3 -5.8 53.7 -10.4 z m 264.6 0.3 l 0.5 0.6 l 1.8 2.3 c 5.3 20.1 8.2 41.3 8.2 63.1 c 0 5.2 -0.2 10.4 -0.5 15.5 l -1.8 3 l 1 2.5 c -1 1.6 -1.8 2.8 -3.6 5.8 c -6.2 10.1 -7.1 18.3 -7.1 18.3 c 0 0 -0.6 3.2 -0.3 5 c 0.3 1.7 0.9 2.5 0.9 3 c 0 0.5 -0.4 4.7 -2.5 8.6 c -2.1 4 -4 5 -4 5 c 0 0 -3.7 2.7 -4.2 0.8 c -0.5 -1.9 -0.4 -3.5 -0.2 -4.7 c 0.2 -1.2 1.4 -7.7 1.2 -10.1 c -0.2 -2.4 -2.3 -0.5 -2.3 -0.5 c 0 0 -0.5 0.6 -1.4 1.8 c -0.9 1.2 -6.3 8 -8.3 10.3 c -4.8 5.6 -9.2 9.7 -20.8 19.1 c 0 0 -0.1 0.1 -0.1 0.1 l -0.1 0.1 c -1 -1.7 -2.1 -2.9 -2.6 -3.7 c -1.4 -1.8 -3.9 -1 -6.9 -8.4 c -3.5 -8.5 -3.9 -15.5 -3.7 -19.8 c 0.3 -4.3 1.3 -6 3.3 -7.8 c 2 -1.9 10.8 -1 10.8 -1 c 0 0 4.3 0.9 8.2 -5.5 c 3.8 -6.4 3.6 -16.9 2.3 -22.1 c -1.2 -5.2 -3 -9.8 -10.2 -10.5 c -7.2 -0.8 -10.4 8 -10.4 8 c 0 0 -1.4 3.4 -3 5.3 c -1.5 1.9 -5.6 1.4 -5.6 1.4 c -1.8 -0.2 -4 0.5 -6.1 -3.9 c -2.1 -4.4 -7 -16 -7 -16 c -1.6 -3.9 -2.7 -7.4 -3.3 -10 l -3.5 -1.4 l -0.4 3.6 c 2.9 10.1 8.9 22.8 11.4 28 c 2.5 5.3 8.3 5.8 12.4 4.8 c 4.1 -1 5.5 -3.3 7.8 -8.3 c 2.3 -4.9 3.5 -5.3 3.5 -5.3 c 0 0 0.9 -1.3 5.1 -0.8 c 4.2 0.5 5.1 3.4 5.1 3.4 c 0 0 2.4 5.7 1.9 11.7 c -0.5 6 -1.8 8.7 -3.2 10.8 c -1.4 2.1 -8.5 1.4 -8.5 1.4 c 0 0 -12.3 -1.4 -13.4 13.4 c -1.1 14.8 3.8 25 3.8 25 c 1.8 3.9 3.7 6 5.2 7.1 c 1.5 1.1 3 2.5 3 2.5 c 0 0 0.3 0.2 0.6 0.7 h 0 c -8.8 7.1 -11.4 9.4 -18.4 14.4 c 0 0 -8 6 -16.7 10.7 c -8.7 4.7 -19 4.1 -19 4.1 c 0 0 -2.8 -0.3 -1.4 -2.3 c 1.3 -2 3.1 -6.9 3.7 -9.4 c 0.7 -2.5 2 -8.8 -3.1 -10.9 c -5.1 -2 -14.7 0.9 -14.7 0.9 c 0 0 -22 5.9 -30.9 15.7 c -8.7 9.6 -1.4 13.8 -1.4 13.8 c 0 0 3.4 2.4 6.7 3.6 c 3.1 1.1 2.5 2.1 1.7 2.7 c 0 0 -9.8 6.3 -21.4 9.6 c 0 0 -15.9 4.9 -31.3 5.9 c -15.3 1 -21.8 1.4 -21.8 1.4 l 0 0 c -1.7 -3.2 -3.4 -6.1 -3.4 -6.1 c 0 0 -0.4 -0.6 -0.9 -1.6 v 0 c -0.3 -0.5 -0.5 -1.1 -0.8 -1.8 v 0 c -0.3 -0.7 -0.5 -1.5 -0.8 -2.3 v 0 c -0.2 -0.8 -0.4 -1.8 -0.5 -2.7 v 0 c -0.2 -1.9 -0.2 -4.1 0.4 -6.2 v 0 c 0.3 -1.1 0.8 -2.2 1.4 -3.3 v 0 c 0.6 -1.1 1.3 -2.1 2 -3 v 0 c 0.7 -0.9 1.4 -1.7 2.2 -2.5 c 3 -3 6 -4.6 7.7 -5.4 l 0 0 c 0.8 -0.4 1.3 -0.5 1.4 -0.5 c 0 0 7.3 -1.6 14.6 0.1 c 3.5 0.8 6 0.5 7.8 0.1 c 0.9 -0.2 1.5 -0.5 1.9 -0.7 l 0 0 c 0.4 -0.2 0.6 -0.4 0.6 -0.4 c 0 0 0.3 -0.1 0.7 -0.4 l 0 0 c 0.4 -0.3 1 -0.8 1.6 -1.5 c 0.2 -0.3 0.4 -0.6 0.6 -0.9 c 0.1 -0.1 0.2 -0.3 0.3 -0.4 c 0.3 -0.5 0.6 -1.1 0.9 -1.8 c 0 0 0 0 0 0 c 0.1 -0.2 0.2 -0.5 0.2 -0.7 c 0.2 -0.5 0.4 -1 0.5 -1.6 c 0.1 -0.4 0.2 -0.8 0.2 -1.2 c 0.1 -0.5 0.2 -1 0.3 -1.6 c 0 0 0 0 0 0 c 0.5 -3.1 0.6 -7.3 -0.1 -11.4 c 0 0 0 0 0 0 c -0.2 -1.4 -0.5 -2.7 -0.9 -4.1 v 0 c -1.6 -5.3 -4.7 -10 -10.3 -11.5 c -5.6 -1.5 -9.9 -0.8 -12.8 0.2 c -1.4 0.5 -2.5 1.2 -3.3 1.6 l 0 0 c -0.7 0.5 -1.1 0.8 -1.1 0.8 v 0 c 0 0 -1.5 1.7 -3.3 3.4 l 0 0 c -1.7 1.8 -3.7 3.7 -4.7 4.2 c -2 1 -5 2.7 -5 2.7 c 0 0 -4.2 2.5 -7.1 3.2 c -1.9 0.4 -8.7 -8.6 -9.4 -15.5 v 0 c -0.3 -3.2 -0.8 -6.1 -1.2 -9.8 c 0 -0.1 0 -0.1 0 -0.2 c -0.3 -3.7 -0.5 -8.2 -0.3 -14.7 v -0.1 l 0 0 c 2 -0.1 4 -0.2 6 -0.3 c 17.3 -0.6 25.9 -2.7 35.2 -4.8 c 9.2 -2.1 22.2 -9.6 24.1 -11.1 c 1.9 -1.4 6 -3.2 6.8 -9.5 c 0.8 -6.3 -6.6 -10.5 -6.6 -10.5 c 0 0 -5.9 -3.1 -7.2 -4.5 c -1.2 -1.4 -0.1 -2.7 -0.1 -2.7 c 0 0 3.3 -7.2 14.1 -11.4 c 10.7 -4.2 17.9 -5.4 22.4 -5.9 c 4.5 -0.5 6.1 1.1 6.7 1.9 c 0.6 0.8 0.6 2.4 0.1 4 c -0.5 1.5 -2.2 5 -3.1 6.8 c -1 1.7 -2.5 5.9 -1.5 7.9 c 1 2 4.1 2.9 8.1 2.2 c 4 -0.7 14.5 -3.7 23.7 -7.5 c 9.2 -3.8 24.6 -11.4 24.6 -11.4 c 0 0 0 0 0.1 -0.1 l 1.1 -1.7 l 2.8 -0.4 c 4.9 -2.7 13.4 -7.7 19.5 -12.8 c 9.1 -7.6 18 -15.7 20.2 -17.7 c 2.3 -2 4.3 -3.7 6.3 -3.6 c 2 0.1 3.6 1.5 4.8 7 c 1.3 5.4 1.5 9.9 2.1 12.5 c 0.6 2.6 1.4 5.7 4.5 6.3 c 3.1 0.6 7.3 -2.1 8.9 -3.5 c 1.6 -1.3 4.5 -5.7 4.3 -11.6 c 0 0 0.3 -7.8 -3.7 -15.2 c 0 0 -1.7 -3 -2.3 -3.8 c -0.4 -0.6 -0.8 -1.2 -0.1 -2.6 c 0.7 -1.4 2.3 -4 5.1 -5.6 c 2.2 -1.2 4.3 -1.5 5.5 -1.9 c 0 0 1.4 -0.3 3 -1.3 z M 80.8 281.3 c -0.8 3.3 -0.9 6.6 -0.1 12.5 c 0.8 5.9 3.9 18.1 8.5 21.2 c 6.1 4.2 10.1 4.2 14.2 3.8 c 4.1 -0.3 6.9 -3.5 6.9 -3.5 c 0 0 1.6 -1.7 3.3 -1.1 c 1.7 0.5 6.5 3.2 10 10.1 c 3.5 6.9 4.2 14.5 -1.5 15.9 c -5.8 1.3 -15.7 -4.1 -15.7 -4.1 c 0 0 -5.6 -3.1 -10.2 0.3 c -4.6 3.5 -4.7 8.8 -2.4 15.3 c 1.3 3.6 3.8 9.4 7.3 15.5 l 3.4 1.4 l -0.3 -0.5 l -3.2 -1 c -5.5 -1.1 -15.7 -3.2 -19.8 -5.3 c -3.7 -1.8 -5.7 -1.5 -5.2 -5.4 c 0.5 -3.7 -3.7 -8.9 -3.7 -8.9 c 0 0 -5.8 -6.2 -11 -10.1 c -5.2 -3.9 -7.4 -2.7 -7.4 -2.7 c 0 0 -2.4 1.2 -0.2 6.3 c 2.1 5 4.2 6.8 4.2 6.8 c 0 0 1 1.1 0.4 1.3 c -0.6 0.3 -2.4 -1 -3.8 -2.3 c -0.6 -0.5 -3.6 -3.4 -6.3 -5.8 c -1 -1.6 -2.1 -3.1 -3.1 -4.8 l 0 0 l -1.5 -2.5 l 0 0 c -15.6 -26.4 -26.3 -56.1 -31 -87.6 c 1.1 1.3 2.4 2.8 4.4 4.8 c 5.3 5.4 6.9 2 6.9 2 c 0 0 1.2 -3.4 -0.3 -9.6 c -1.5 -6.2 -1.2 -9.9 1.6 -9.8 c 2.8 0.1 11 1.8 13.5 8.5 c 0 0 1.1 3.2 0.1 7.2 c -1 4 -0.8 7.6 -0.1 11.1 c 0.7 3.5 3.7 6.8 7.1 9.6 c 3.4 2.7 13.3 7.5 23 8.1 c 9.6 0.6 12.6 0.1 12.6 0.1 c -0.2 1 -0.4 2 -0.7 3 z m 418 -46.9 c -5.8 58.1 -31.9 110.2 -71.2 149.2 c 0 -0.5 2.2 -2.5 2.2 -2.5 c 0 0 2.8 -3 4.7 -5.5 c 1.8 -2.4 0.7 -2.3 0.7 -2.3 c 0 0 -0.9 -0.2 -4.8 2.2 c -3.9 2.5 -6.6 4.2 -6.6 4.2 c 0 0 -8.4 4.8 -13.7 7.9 c 0 0 -0.1 0.1 -0.2 0.1 c 1 -1.5 2 -2.9 3 -4.3 v 0 c 3.1 -4.2 6.3 -7.8 8.8 -10.7 c 4.2 -4.7 9.2 -12.3 9.2 -12.3 c 0 0 3.1 -5.3 3.2 -7.8 c 0 0 0 0 0 0 c 0 -0.4 0 -0.6 -0.1 -0.8 v 0 c -0.6 -1.1 -3.4 0.1 -8.2 3.6 c -3.7 2.8 -6.6 4.5 -9.1 5.8 c -1.2 0.5 -2.4 0.9 -3.4 1 c -5 0.6 -4.8 -4.6 -4.5 -6.9 c 0.3 -2.3 1.5 -7.5 5.2 -9.6 c 3.6 -2.1 8.7 -2 12.3 -2.5 c 3.6 -0.5 5.2 -1.5 5.2 -1.5 c 0 0 5.9 -3.7 9.7 -10 c 3.9 -6.3 7.3 -16.4 7.7 -26.4 c 0.2 -3.7 -0.3 -6.6 -1.1 -8.8 h 0 c 9.6 -7.6 18.8 -17.3 18.8 -17.3 c 0 0 6.1 -6.1 9.2 -11.4 c 2.9 -5 0.1 4.3 0.1 4.3 c 0 0 -1.5 7.4 0.9 10.1 c 2 2.2 7.6 -3.9 7.6 -3.9 c 0 0 3.3 -3.8 4.7 -10 c 2 -9.1 0.9 -10.9 0.9 -10.9 c 0 0 -1.2 -1.9 -0.4 -4.1 c 0.7 -2.2 5.3 -13.9 9.2 -18.9 z m -54.3 61.7 l -0.6 0.8 l 0.6 2.3 c 1 2.8 1.8 7.2 0.7 13.7 c -2.3 14 -6.3 18.4 -6.3 18.4 c 0 0 -5 6.9 -10.7 7.6 c -5.8 0.7 -12.1 0.5 -17.9 6.9 c -6.4 7.1 -5.1 16.2 -5.1 16.2 c 0 0 0.6 5.6 6.5 4.1 c 6 -1.5 12.1 -6.1 16.7 -9.8 c 4.6 -3.6 1.8 1.2 1.8 1.2 c -4.1 7.9 -11.8 15.8 -11.8 15.8 c 0 0 -2.7 2.3 -8.6 10.7 c -1.5 2.2 -2.8 4 -3.8 5.7 c -6.1 3.3 -14.6 7.6 -20.3 9.9 c -6.9 2.9 -10.5 3.5 -9.9 2.6 c 0.6 -0.9 2.2 -2.2 2.2 -2.2 c 0 0 1.9 -1.9 1.9 -3.9 c 0 0 0.6 -2.8 -7.8 -1.1 c -8.4 1.8 -16 5.9 -16 5.9 c 0 0 -12.5 5.7 -9.5 9.2 c 0 0 0.6 0.9 3.1 1.7 c 2.5 0.8 -4.5 2.9 -4.5 2.9 c -6.6 2.2 -11.7 3.2 -18.2 4.5 c -7.7 1.6 -12.6 2.7 -16.3 3.5 c 0 0 0 0 0 0 l 0 0 c -1.2 -4.5 -3.7 -8.5 -5.2 -10.9 c -0.3 -0.5 -0.8 -1.3 -1 -1.6 v 0 c -0.4 -0.6 -0.8 -1.2 -1.4 -1.6 c -0.5 -0.4 -1.2 -0.8 -2.1 -1 c -1.8 -0.5 -4.3 -0.6 -8.2 0.1 c -7.6 1.3 -16.4 5 -16.4 5 c 0 0 -2.3 1.2 -5.4 2.3 c -3.1 1.1 -7.1 2.1 -10.6 1.6 c -2.6 -0.3 -4.4 -1.5 -5.6 -3 c -0.4 -0.5 -0.8 -1 -1.1 -1.5 v 0 c -0.3 -0.5 -0.5 -1.1 -0.7 -1.6 v 0 c -0.2 -0.5 -0.4 -1 -0.5 -1.5 v 0 c -0.2 -1 -0.3 -1.8 -0.3 -2.4 c 0 -0.5 0.1 -1.1 0.3 -1.6 v 0 c 0.2 -0.5 0.5 -1 0.9 -1.4 c 0.8 -0.9 2 -1.7 3.8 -2.4 c 3.6 -1.4 12 -3.3 24.2 -3.9 c 7.6 -0.4 12.3 -3.7 14.7 -6 c 1.4 -1.4 2.1 -2.5 2.1 -2.5 c 0.6 -0.9 1.4 -2.1 1.8 -3.6 v 0 c 0.4 -1.4 0.4 -3.1 -0.6 -4.7 l 0 0 c -0.3 -0.5 -0.8 -1.1 -1.3 -1.6 l 0 0 c -0.6 -0.5 -1.3 -1 -2.1 -1.5 l 0 0 c -1.7 -1 -3 -1.6 -4 -2.1 l 0 0 c -1 -0.5 -1.8 -0.8 -2.4 -1.1 l 0 0 c -1.3 -0.5 -2.2 -0.9 -3.8 -2.2 c -1.6 -1.3 -3.4 -2.7 -4.8 -4.3 c -0.7 -0.8 -1.4 -1.7 -2 -2.6 l 0 0 c -0.3 -0.5 -0.5 -1 -0.7 -1.6 c -0.2 -0.5 -0.5 -0.9 -0.7 -1.4 v 0 c 0 -0.1 -0.1 -0.2 -0.1 -0.3 c -0.1 -0.4 -0.3 -0.8 -0.4 -1.1 l 0 0 l -0.3 -1.6 c -4.8 -1.9 -2.4 -0.2 0.4 1.6 c 3.6 -0.3 8.1 -0.6 12.3 -0.8 c 8.2 -0.4 21.1 -2.3 28.6 -3.9 c 7.5 -1.7 18.8 -5.1 27.2 -9.5 c 8.4 -4.3 8.8 -7.4 8.8 -7.4 c 0 0 1.6 -2.3 -1.9 -4.8 c -3.5 -2.5 -5 -1.9 -8.1 -5 c -3.1 -3.1 2.7 -7.9 2.7 -7.9 c 0 0 3 -4.2 19.5 -10.6 c 16.5 -6.4 19.3 -4.2 20.2 -3.5 c 0.8 0.7 1 3 0.6 4.5 c -0.3 1.5 -2.4 7.1 -3.5 10 c -1.1 2.9 -1.5 6.8 2.9 7.8 c 4.5 0.9 10.8 0 16.6 -2.1 c 14 -5 18.2 -11.2 41.4 -28 c 0.1 0 0.1 -0.1 0.1 -0.1 z M 57.6 338.8 c 0 0 0.6 -0.2 2.9 1.5 c 2.2 1.7 7.3 5.2 9.8 8.3 c 2.5 3 2.3 5.7 2.3 5.7 c 0 0 -0.5 2.7 2.2 5.7 c 2.7 2.9 8.4 8.3 28.5 11.4 c 0.1 0 0.2 0 0.3 0 l 0.4 -2.7 l -0.5 0.3 l 0.1 2.4 c 2.4 3.6 5.1 7.2 8.2 10.2 c 0 0 12 13.2 18.6 21.6 c 0 0 0.4 0.8 -0.8 0.1 c -1.2 -0.7 -6.2 -3 -8.8 -2.8 c -2.7 0.3 -2.2 1.9 -2.2 1.9 c 0 0 1.2 6.1 19.5 16.3 c 0 0 6.6 3.7 10.8 3.7 c 0 0 1.3 0.2 3 -1.7 c 1.7 -1.8 2.2 -1.7 3.3 -1.3 c 1.2 0.4 2.7 1.2 8.5 5.4 c 5.8 4.2 17 10.6 21 13.3 c 1.3 0.9 2 1.5 2.6 2 c -8.7 -0.7 -17 -1.7 -21.4 -2.4 c -2.7 -1 -5.3 -2.1 -8 -3.2 c -0.9 -0.5 -1.2 -0.8 -2.2 -1.4 c -2.5 -1.5 -10.1 -4.4 -10.1 -4.4 c 0 0 -0.7 -0.2 -0.8 -0.3 c -36.9 -18.6 -68.5 -46.3 -91.8 -80.1 c 0.3 0.3 0.5 0.5 0.9 0.7 c 7.5 5.9 7.6 3.5 7.6 3.5 c 0 0 0.3 -1.9 -1.4 -4.1 c -1.7 -2.1 -4.5 -6.7 -3.8 -8.3 c 0.7 -1.6 1.5 -1.5 1.5 -1.5 z m 213.6 22.2 c 1.9 4.7 3.4 7.2 6.3 10.4 c 3.2 3.4 8.1 6.1 14 8.3 c 5.9 2.2 3.2 6.2 3.2 6.2 c -3.4 7.3 -13.4 7.6 -16.3 7.9 c -2.9 0.3 -9.1 0.9 -14.8 2.2 c -5.7 1.3 -11.1 2 -14.3 5.7 c -3.2 3.7 -1.9 7.6 -0.1 11.6 c 1.9 4.1 6.9 6.2 13.8 5.9 c 6.9 -0.3 11.4 -2.3 15.6 -4.1 c 4.2 -1.8 11.5 -3.9 13.6 -4.6 c 2.2 -0.6 5.1 -1.9 7.3 1.3 c 2.3 3.4 4.8 8.2 6 11.9 c 0.1 0 0.1 0 0.2 0 c 0 0 -5.9 1.4 -15.7 5.2 c -9.8 3.8 -29 6.9 -29 6.9 c 0 0 -12.3 1.4 -13.5 3 c -1.1 1.6 0.9 2.4 0.9 2.4 c 0 0 1.8 1.1 8.1 1.4 c 0 0 2.2 0 2.3 0.2 c 0.1 0.2 0.2 0.3 -1.1 0.8 c -1.4 0.4 -4.1 1.5 -13.5 2.7 c -9.4 1.2 -9.2 -0.3 -9.2 -0.3 c 0 0 0 -0.4 0.4 -1 c 0.4 -0.7 0 -1.8 -1.4 -2.6 c 0 0 -2 -1.3 -8.9 -1.3 c -6.8 0 -20.5 0.1 -33.2 -0.7 c -0.3 0 -0.6 -0.1 -0.9 -0.1 l 0 0 l 0.8 0 c -0.8 -0.7 -1.8 -1.4 -3 -2 c -3.4 -1.8 -18.1 -11.5 -22.7 -14.6 c -4.5 -3.1 -12.5 -8.3 -16 -7.2 c -2.7 0.8 -2.3 1.9 -3.9 2.7 c -1.6 0.8 -3.3 0.3 -7.3 -1.9 c -4 -2.1 -6.9 -3.5 -14.7 -10.9 c -6 -5.8 7.7 -0.6 7.7 -0.6 c 0 0 3 1.3 1.7 -1.9 c -1.3 -3.1 -8.1 -11.3 -14.5 -17.9 c -5.2 -5.3 -8.1 -9 -11.8 -14.4 l -2.4 -0.7 l 2.4 0.7 c 17.5 2.5 27 2.7 27 2.7 c 0 0 22.9 0.8 29 0.8 c 6.2 0 5 3.2 5 3.2 c 0 0 -0.3 1.7 -1.1 3.1 c -0.8 1.4 -2.5 6.6 -0.7 9.4 c 0 0 2.8 6.9 21.3 7.4 c 0 0 16.1 1.3 27.4 -3.3 c 11.3 -4.6 1.1 -11.1 1.1 -11.1 c 0 0 -3.8 -2.3 -5.5 -3.6 c -1.5 -1.1 -0.9 -2.3 -0.6 -3.1 c 0.3 -0.8 1.4 -1.7 2.7 -2.4 c 1.3 -0.7 6 -3.2 26 -8.4 c 20 -5.2 32 -5.7 32 -5.7 c 0 0 0.1 0 0.2 0 z m 161.5 15.2 c 0.2 0.1 0 0.5 -1.2 1.8 c -3.1 3.5 -4.7 4.9 -4.7 4.9 c 0 0 -2.6 2.6 -2.4 3.6 c -10.4 10 -21.7 19 -33.7 27.1 c 0.7 -0.8 1.3 -1.7 1 -1.9 c -0.6 -0.5 -3 1.2 -3 1.2 c 0 0 -2 1.6 -3.8 2.4 c -0.1 0 -0.2 0.1 -0.3 0.1 c 0 0 0.1 0 0.1 0 c -0.1 0 -0.1 0 -0.1 0.1 c 0 0 0 0 0.1 0 c -0.1 0 -0.2 0.1 -0.4 0.1 c -0.5 0.2 -0.9 0.3 -1.3 0.3 c -0.2 0 -0.4 -0.1 -0.4 -0.2 c -0.2 -0.4 0.3 -1.2 0.9 -1.9 c 0.8 -1 1.9 -2 1.9 -2 c 0 0 4.4 -4.9 8.6 -5.7 c 1 -0.2 1.9 -0.4 2.6 -0.6 c 2.1 -0.7 2.9 -1.6 4.4 -2.7 c 2.1 -1.6 2.4 -3.3 6.6 -10.9 c 0.2 -0.3 0.3 -0.6 0.5 -0.8 l 0 0 c 5.4 -3 7.3 -3.9 8.5 -4.7 c 5.7 -3.4 12.6 -7.6 14.4 -9 c 0 0 1.4 -1 1.8 -0.9 z m -27.9 16.6 c -0.1 0.2 0.9 -2.6 0.8 -2.4 c -2.7 4.3 -3.9 6.9 -3.9 6.9 c 0 0 -1.4 2.7 -1.5 4.2 c -0.1 1.5 -1.2 1.3 -1.2 1.3 c 0 0 -2.2 0 -5.2 1.2 c -0.3 0.1 -0.3 0 -0.7 0.2 c 0 0 -0.3 0.2 -0.5 0.3 c -1.1 0.5 -2.3 1.3 -3.6 2.2 c -0.2 0.1 -0.3 0.2 -0.5 0.3 c -0.1 0.1 -0.3 0.2 -0.4 0.3 c -0.9 0.7 -1.4 1.3 -2.2 1.9 c -0.6 0.5 -1.3 1.1 -1.8 1.6 c -0.9 0.8 -1.5 1.5 -2.2 2.1 c -0.2 0.2 -0.4 0.4 -0.6 0.6 c -0.2 0.2 -0.5 0.5 -0.7 0.7 c -0.1 0.1 -0.2 0.3 -0.3 0.4 c -0.3 0.4 -1 1.1 -1 1.1 c 0 0 -2.1 2.7 -0.1 2.7 c 2 0 6.7 -2.4 8.5 -4 c 1.8 -1.6 0.9 -0.3 0.9 -0.3 c -0.6 0.6 -1.4 1.4 -2.1 2 c -21.3 13.6 -44.8 23.9 -69.9 30.4 c -2.6 -0.2 -4.5 -0.5 -5.4 -0.6 c -2.1 -0.3 -3.8 -0.7 -4.3 -1.7 c -0.5 -1 2.3 -1 2.3 -1 c 0 0 8.2 -0.9 15.7 -3.3 c 7.6 -2.5 9.4 -4.8 9.1 -6.5 c -0.3 -1.7 -4.1 -1.6 -8.7 -0.1 c -4.5 1.5 -11.3 3.6 -12.9 4 c -0.6 0.1 -1.3 0.1 -1.9 0.1 c -0.3 0 -0.5 0 -0.8 -0.1 c -0.2 0 -0.4 -0.1 -0.5 -0.1 c -0.1 0 -0.1 -0.1 -0.2 -0.1 c -0.2 -0.1 -0.5 -0.3 -0.6 -0.5 l 0 0 c -0.1 -0.1 -0.1 -0.3 -0.2 -0.5 c -0.1 -0.1 -0.1 -0.2 -0.2 -0.4 c -0.1 -0.3 -0.2 -0.7 -0.1 -1 c 0 -0.8 0.3 -1.6 1.2 -2.5 c 0.4 -0.5 0.8 -0.9 1 -1.3 c 0.3 -0.4 0.5 -0.8 0.6 -1.1 c 0.3 -0.6 0.3 -1 0.3 -1 c 0 -0.2 0 -0.3 0.1 -0.5 c 0.2 -1.1 0.2 -2.2 0.1 -3.4 c 0.3 -0.1 0.5 -0.1 0.5 -0.1 c 0 0 11.2 -2.6 15.9 -3.4 c 4.7 -0.8 15.3 -3.1 19.8 -5.3 c 4.5 -2.2 6.8 -3.9 7.3 -5.2 c 0.5 -1.3 -1.9 -2.1 -1.9 -2.1 c 0 0 -2.8 -0.7 -2.5 -1.7 c 0.4 -1 1.4 -1.8 5.9 -3.8 c 4.5 -2 10.1 -4.2 15.7 -5.6 c 5.6 -1.4 3.6 0.9 3.6 0.9 c 0 0 -3.4 3.4 -3.8 4.7 c -0.4 1.3 0.1 1.4 0.6 1.6 c 0.4 0.2 3.1 0.1 5 -0.3 c 1.9 -0.5 16.8 -6.2 25.9 -11.4 c 0.2 -0.1 0.5 -0.3 0.7 -0.4 z m -98.7 33.6 c 0.5 3.2 -0.5 4.3 -1.2 5.4 c -0.8 1.3 -2.9 2.9 -1.8 5.7 c 1 2.9 8.2 2 12.3 0.7 c 4.1 -1.3 7.6 -2.4 10.4 -3.4 c 2.7 -1 3.5 0.4 3.5 0.4 c 0 0 1.2 0.8 -2.8 2.9 c -4 2.1 -11.3 3.1 -14.8 3.5 c -3.5 0.4 -2.5 -0.2 -7.7 1.6 c -5.3 1.8 -0.3 3.4 -0.3 3.4 c 2.8 0.7 5.4 1.1 7.8 1.3 c -18.1 4.3 -36.9 6.5 -56.3 6.5 c -9.9 0 -19.6 -0.6 -29.1 -1.7 c 0.5 -0.4 -1.1 -1.1 -1.1 -1.1 c 0 0 -4.4 -2.1 -14 -2.8 c 0 0 -3.9 -0.3 -7.3 0.1 c -0.2 0 -0.5 0 -0.7 0 c -2.4 -0.5 -4.8 -1.1 -7.1 -1.6 c -1.2 -0.5 -3.8 -1.5 -2.8 -2.7 c 0.6 -0.8 0.7 -1.6 0.3 -2.4 c 5.4 0.3 12.4 0.7 12.4 0.7 c 0 0 14.5 0.5 22.4 -0.1 c 3.6 -0.3 2.5 1.6 2.5 1.6 c 0 0 -1 1.7 1 2.6 c 0 0 3.7 2.1 16.2 0.8 c 12.5 -1.4 15.2 -4.2 15.2 -4.2 c 0 0 1.4 -1.3 -1.7 -1.9 c -2.5 -0.5 -2.5 -0.2 -5.7 -0.6 c -3.2 -0.3 -4.8 -1 -2.7 -1.6 c 2.1 -0.6 5.7 -0.8 5.7 -0.8 c 0 0 10.9 -1.5 19.7 -3.8 c 0 0 9.4 -2.2 18.7 -5.5 c 3.7 -1.3 6.8 -2.2 9.2 -2.9 z M 171 439.8 c 6.3 0.8 14.3 1.7 17 2 c 0 0.4 -0.2 0.9 -0.4 1.5 c -0.5 1.1 0.5 1.9 1.5 2.4 c -6.1 -1.7 -12.1 -3.7 -18.1 -5.9 z m 39.5 10.4 c 1.5 -0.1 2.8 0 4.4 0.3 c 3.1 0.6 6.2 1.4 6.5 1.7 c 0.1 0.1 -0.2 0.1 -0.5 0.1 c -4.1 -0.6 -8.2 -1.3 -12.3 -2 c 0.6 0 1.4 -0.1 1.9 -0.1 z" style="fill: rgb(253, 253, 253)"/><path id="path4837" d="M 88.8 44.7 h 0.6 c -0.8 2.3 -3.8 5.5 -5.2 7.7 c -0.8 1.2 -1.2 2.8 -2.3 3.6 c 0.2 0.2 0 0 0.2 0.2 c 0.4 0.3 3.9 -0.7 4.6 -1.1 c 0.4 0.1 0.4 0.1 0.6 0.2 c 0.2 0.3 -2.3 4.8 -2.9 5.4 v 0.2 c 1 -0.1 2.4 -0.3 3.1 -0.8 c 1.9 -1.5 2.3 -4.5 3.6 -6.5 c -0.1 -0.3 -0.1 -0.6 -0.2 -1 c -1.1 -0.2 -3.3 0.1 -4.2 0.8 h -0.2 c 0.4 -2.3 4.2 -6.5 5.6 -8.5 c 2.2 -3.1 4.3 -6.2 6.5 -9.2 c 1.2 -1.6 2.8 -3 4 -4.6 c 1.3 -1.8 2.8 -4.1 4.6 -5.4 v -0.4 h -0.8 c -0.9 0.7 -3.3 1.1 -4.4 1.7 c 0.2 0.7 0.1 0.5 0.6 0.8 c -0.7 1.9 -2.9 3.3 -4 4.8 c -1.8 2.4 -3.8 4.7 -5.6 7.1 c -0.6 0.8 -1 2 -1.7 2.7 c -1.2 1 -4.4 0.9 -5.8 1.9 h -0.4 c 0.3 -1.6 4.4 -6.8 5.6 -7.9 v -0.2 c -2 0.3 -3.5 1.3 -4.8 2.3 c 0.2 0.4 0.2 0.4 0.6 0.6 c -0.7 1.2 -1.8 2 -2.5 3.1 c -1 1.3 -1.5 2.9 -2.5 4.2 c 0.1 0.2 0.1 0.4 0.2 0.6 c 1.2 -0.1 6.3 -1.7 7.1 -2.3 z M 257.7 70.6 c 1 0.3 1.9 0.6 2.9 1 c 0.8 0 1.6 0 2.1 -0.2 c 0 -3.2 -1.8 -4.4 -2.9 -6.5 c -0.5 -1.1 -0.8 -2.5 -1.7 -3.3 c 0.3 -1.2 3.5 -1.5 4.8 -1.9 c 3.1 -1 6.7 -2 9.8 -3.1 c 1.5 -0.5 3.2 -0.4 4.4 -1.1 c 0.7 0.1 1.1 0.1 1.3 0.6 c 0.7 1 1.3 8.1 0.8 10.2 c -1.9 8.1 -4.4 14.4 -9.4 19.2 v 0.2 c 1.9 -0.3 2.8 -2.1 4 -3.1 c 5.1 -3.9 8.6 -9.6 10.4 -16.7 c 1.1 -4.2 -0.7 -8.3 1 -11.9 h -0.2 c -0.4 -0.9 -5.3 -2.7 -6.7 -2.7 c -0.8 0.9 -1.9 2 -3.1 2.5 c -1.7 0.7 -4.1 0.5 -5.6 1.5 c -1.4 -0.1 -2.5 -2.8 -1.5 -3.8 c 0 -0.4 0 -0.5 -0.2 -0.8 c -1.2 -0.9 -4.1 -0.8 -6.2 -0.8 c -0.6 0.6 -1.2 0.7 -1.5 1.7 h -0.2 c -0.1 0.4 0.1 0.2 0.2 0.4 c 0.1 0.1 0.8 0 1.2 0.2 c 2.2 0.2 2.1 2.7 3.3 4 c -0.1 0.3 0 0.2 -0.2 0.4 c -0.8 0.6 -6.3 2.2 -7.5 2.5 c -0.9 0.2 -2 -0.3 -2.7 -0.4 c -1.6 -0.1 -3.1 0.8 -4 1.3 c 0.5 0.8 2.1 0.6 2.7 1.3 c 2 2.7 3 6.2 4.8 9.2 z m 38.2 -2.7 c 0.9 0.5 0.9 1.6 1.3 2.5 c 0.9 1.8 2.1 4 2.7 6 v 1.5 c 0.4 1.2 1.9 1.4 2.9 2.1 c 0.8 -0.1 1 -0.3 1.5 -0.6 c -0.3 -3.7 -2.6 -6.7 -3.8 -9.6 c -0.4 -0.9 -1 -2.2 -1.1 -3.1 c -0.1 -0.5 0.3 -0.8 0 -1.3 c -0.2 -0.6 -0.4 -0.4 -0.8 -0.8 c -0.3 -0.2 -0.2 -0.1 0 -0.4 c 0.3 -0.7 1 -1.4 1.3 -2.1 c 0.6 -1.5 0.6 -2.8 1.9 -3.6 c -0.2 -2 -3.1 -2.2 -5.4 -2.1 c -0.3 0.2 -0.8 0.3 -1.2 0.4 c 0.2 0.5 0.4 0.6 1 0.8 c 0.6 5.6 -3.4 10.8 -6 14.2 c -1 1.4 -2.7 2.2 -3.6 3.7 h -0.2 v 0.2 c 2.6 -0.4 8.1 -5.7 9.4 -7.7 z M 65.8 115.8 c -0.4 0.1 -0.4 0 -0.6 0.2 c -1.4 0.7 -3.8 6.9 -6.5 5.2 c -1.4 0 -1.5 -0.3 -2.3 -0.8 c 0.1 -1.8 3.2 -5.2 4.4 -6 c 0.2 -2.9 0.9 -6.1 0.6 -8.8 c -0.2 -0.1 -0.4 -0.1 -0.6 -0.2 c -0.7 -0.2 -1.2 0.8 -1.7 1.3 c -1.4 1.4 -3.1 2.9 -4.2 4.6 c -1.6 0 -6.9 -0.1 -7.9 0.6 h -0.6 c 0.5 -1.2 4.2 -5.3 3.1 -7.1 c -0.1 -0.2 -0.1 -0.4 -0.2 -0.6 c -3.5 0 -7.7 6.2 -8.8 8.8 c -0.6 1.3 -0.6 2.8 -1.3 3.8 v 0.2 c 2.6 -0.3 5.3 -0.6 7.9 -1 c 1 -0.2 2.4 0.3 3.1 -0.2 h 2.7 c 0.4 -0.6 0.9 -1.2 1.3 -1.7 c 1.6 -1.7 3.7 -3.4 5 -5.4 h 0.6 v 2.7 c -1.5 1.3 -3.8 3.4 -4.4 5.4 v 1.5 c -1 4.3 1.1 6.5 4.8 6.2 c 2.4 -2.3 6.4 -4.1 6 -8.6 c -0.2 -0.2 0 0 -0.2 -0.2 z m -22.3 -3.5 h -1.2 c 0.5 -2.1 2.6 -4.5 5.2 -4.6 v 1 c -0.9 1.2 -1.8 2.3 -2.7 3.5 c -0.5 0 -1 0 -1.3 0.2 z m 413.8 1 c -0.8 -2 -1.4 -3.5 -2.3 -5.2 c -1.5 -2.8 -3 -6.9 -7.1 -6.9 c -1 0.9 -2.1 1.6 -2.7 2.9 c -3.8 8.6 4 18.2 7.5 22.9 c 1.2 1.6 2.7 3.5 4.6 4.4 c -0.4 6.7 -6.2 8.8 -12.3 6.2 c -4.4 -1.9 -7.8 -6 -10.6 -9.6 c -0.9 -1.2 -2.3 -2.2 -3.3 -3.5 c -0.9 -1.2 -1.5 -2.5 -2.5 -3.5 v -0.2 h -0.4 c 0.5 2.1 1.7 4 2.5 5.8 c 3.2 7.5 7.4 12.7 13.6 17.1 c 3 2.1 7.9 5.4 12.1 2.3 c 7.4 -5.3 3.8 -25.2 0.8 -32.7 z m -0.6 9.2 c -0.5 0.5 -2.6 -2 -3.1 -2.5 c -2.1 -2.2 -6.5 -5.9 -4 -9.6 h 1 c 1.9 2 3.6 3.8 4.8 6.5 c 0.6 1.5 0.7 3.9 1.5 5.2 c -0.1 0.3 0 0.2 -0.2 0.4 z m -127.4 38.4 v -1.9 c 0.9 -3.9 0.7 -8.6 1.5 -12.5 c 1.2 -5.3 -0.5 -10.4 4.8 -11.7 c 0.1 -0.5 0.3 -0.7 0 -1.2 c -0.1 -0.3 0 -0.2 -0.2 -0.4 c -0.2 -0.2 -0.2 -0.1 -0.6 -0.2 c -1.5 1.1 -5.5 1.8 -7.5 2.3 c -1.5 0.4 -3.1 0 -4.2 0.8 c -0.2 0.1 -0.4 0.1 -0.6 0.2 c 0.1 0.4 0.1 0.8 0.2 1.2 c 2.2 0.7 4.2 -0.2 5.2 1.7 c 0.6 1.2 0.5 5.6 0.2 7.3 c -1.2 5.6 -0.7 12.1 -1.9 17.7 c -0.4 1.9 0.1 5.7 -0.8 7.1 v 0.4 c -1.2 -0.6 -1.9 -2.1 -2.7 -3.1 c -1.7 -2.3 -4.2 -4.1 -6 -6.3 c -1 -1.4 -2.1 -3 -3.5 -4 c 0.2 -3.7 1.3 -7.6 2.1 -10.9 c 0.6 -2.5 0.7 -4.9 1.9 -6.7 c 0.7 -1.1 2.5 -1.7 3.6 -2.3 c 0 -0.5 0 -0.7 -0.2 -1 c -0.1 -0.2 -0.1 -0.4 -0.2 -0.6 c -2.6 0.4 -4.9 1.7 -7.3 2.3 c -2.2 0.6 -4.4 0.4 -6.2 1.3 c 0.1 0.4 0 0.5 0.2 0.8 c 0.1 0.2 0.1 0.4 0.2 0.6 c 6.7 -0.4 5.7 3.3 4.4 8.5 c -0.4 1.6 -0.1 3.8 -1 5 v 0.4 h -0.2 c -1.4 -2.1 -3.5 -4.1 -5.2 -6 c -0.7 -0.6 -1.4 -1.3 -2.1 -1.9 c -0.5 -0.7 -0.8 -1.5 -1.3 -2.1 c 0.1 -2.1 1.8 -2.7 3.5 -3.3 c -0.1 -0.9 -0.3 -1 -0.6 -1.5 c -5 0.7 -9.4 3.5 -15 3.8 v 0.2 h -0.2 c 0 0.5 0 0.7 0.2 1 v 0.4 c 1.1 0.2 2.7 -0.3 4 0.2 c 2.1 0.7 3.9 3.1 5.2 4.8 c 1.9 2.5 4.8 4.6 6.7 7.1 c 1 1.3 2.1 3.1 3.5 4 c -0.2 3.4 -1.1 6.9 -1.9 10 c -0.4 1.6 -0.2 3.6 -1 4.8 c -0.1 0.3 0 0.2 -0.2 0.4 c -1.8 -3.5 -5.4 -6.1 -7.7 -9.2 c -4.5 -5.9 -9.4 -11.3 -14 -17.1 c 0 -0.8 0 -1.3 0.4 -1.7 c 0.4 -1.1 1.7 -2.2 3.1 -2.3 c 0.1 -0.6 0.2 -0.7 -0.2 -1.2 c -0.1 -0.2 -0.1 -0.4 -0.2 -0.6 c -3.9 0.6 -7.4 2.4 -11.1 3.5 c -1.9 0.5 -4.5 0.3 -6 1.3 c -0.2 0.1 -0.4 0.1 -0.6 0.2 c 0.1 0.7 0.3 0.9 0.6 1.3 c 1.5 0 3.1 -0.4 4.6 0 c 3.9 1.2 6.6 5.5 8.8 8.5 c 1 1.3 2.5 2.3 3.5 3.6 c 4.1 5.5 8.8 10.4 12.9 16 c 1.6 2.1 3.7 4 5.2 6.3 c 0.9 0 1 -0.1 1.5 -0.4 c 1 -4.5 1.6 -9.1 2.9 -13.6 c 0.6 -2.1 1.3 -4.6 1.5 -6.9 c 1.6 0.6 2.9 2.9 3.8 4.2 c 3 4 7.2 7.3 10 11.5 c 0.8 0 0.9 -0.1 1.3 -0.4 c 0.8 -6.5 1.7 -13.1 2.5 -19.6 z M 26.4 193.8 c -0.1 12 -0.7 30.4 8.6 33 c 3.4 0.9 5.3 -1.3 6.3 -2.9 c 3.8 -5.7 2.7 -16.7 -1 -21.5 c -1.6 0.2 -4 4.1 -4.8 5.4 c -0.4 -0.1 -0.4 -0.1 -0.6 -0.2 c -0.4 -0.2 -0.4 -0.3 -0.8 -0.6 c -0.3 -4.5 0.6 -8.7 0.8 -13.1 c 5.1 0.5 9.4 3.4 14.6 3.6 c 0 -0.9 0 -2.1 0.4 -2.7 c 0 -0.4 0 -0.5 -0.2 -0.8 c -0.7 -0.6 -4.6 -1.5 -5.8 -1.5 v -0.2 h -0.2 c 0.7 -5.7 -0.9 -10.1 -4.8 -11.7 c -2.2 -0.4 -4.4 -0.8 -6.5 -1.2 c -1.1 -0.4 -1.7 -1.3 -2.5 -1.9 c -0.3 -1.8 -0.6 -3.9 0.8 -5 c -0.1 -0.7 -0.2 -0.8 -0.6 -1.2 v -0.2 h -0.2 c -0.6 1.1 -1.2 2.4 -1.5 3.8 c -1.1 4.8 1.5 8.8 4.4 9.8 c 1.9 0.3 3.8 0.6 5.8 1 c 1.5 0.6 2.2 1.8 3.3 2.9 c 0 2.5 -2.4 2.8 -4.4 2.1 c -3.1 -1 -6.4 -1.7 -9.6 -2.9 c -0.8 -0.3 -1.6 -0.8 -2.7 -1 c -0.1 1.2 -0.3 2.4 -0.4 3.6 c 2.7 0.8 5.4 1.7 8.1 2.5 c -0.1 6.8 -2.8 14.9 0.6 20.2 c 0.4 0.1 0.7 0.2 1 0.4 c 3.8 -0.3 4.6 -3.3 6.5 -5.4 c 1.7 4 0.4 10.9 -3.3 11.9 c -1.6 1.1 -3.9 -0.3 -4.8 -1.2 c -3.1 -2.9 -3.8 -7.3 -5 -12.3 c -0.4 -1.7 0.2 -5.1 -0.6 -6.3 c 0 -2 0.4 -5.5 -0.6 -6.5 v -0.2 h -0.4 z m 461.5 32.3 c -0.7 -3.2 0.3 -7.2 -0.4 -10.2 v -3.1 c -0.5 -2.2 -0.3 -5.1 -0.8 -7.3 c -0.9 -4.3 -0.1 -9.4 -1.7 -12.9 c -1 -0.2 -1.9 -0.4 -3.3 -0.4 c -0.5 0.5 -0.9 0.8 -0.8 1.3 c 0.4 1.7 2.7 2.1 3.3 3.8 c 0.1 0.8 0.1 1.7 0.2 2.5 c 0.6 2.7 0.5 6.2 1.1 9 v 2.3 c 0.3 1.4 0.8 5 0.4 6.2 c -0.7 2 -2.8 3.8 -4.2 5.2 c -3.7 3.7 -8 8.3 -14.4 9 c -0.1 0.3 0 0.2 -0.2 0.4 c 0.1 2.4 2.3 1.9 3.9 2.9 c 0.4 -0.1 0.8 -0.1 1.1 -0.2 c 0.6 -0.4 0.9 -1.2 1.3 -1.7 c 1 -1.3 2.7 -1.9 3.6 -3.3 h 0.2 c 0 5.9 0.1 12.4 0.2 18.1 h 0.6 c 1.3 -5.7 1.2 -12.7 1.2 -19.6 c 2.5 -2.4 4.1 -5.8 6.7 -8.1 v -0.4 h 0.2 c 0 6.1 0.2 12.3 0.2 18.4 c 0 2 -0.5 6.7 0 7.5 v 1.2 h 0.4 c 0.5 -2.1 0.7 -5 1.2 -7.3 v -3.3 c 0.6 -2.6 0.6 -7.6 0 -10.2 z m -344.9 12.3 c -1.7 -0.7 -3.8 -2.2 -4.8 -3.6 c -3.1 -4.2 -6.5 -14.3 -4.2 -21.9 c 1.8 -6.1 5.8 -10.3 12.3 -11.9 c 3.3 -0.8 6.8 0.3 8.8 1.3 c 5.9 3 8.4 7.3 10.2 14.4 c 2.3 9.2 -0.6 17.6 -6.7 20.4 c 0.4 3.7 0.8 7.4 1.2 11.1 c 2.2 -0.1 4.1 -0.5 6 -1 c 3.1 -0.8 6.2 -0.9 9 -1.5 c 2.1 -0.5 5.1 -0.1 6.7 -1.2 c 0.4 -0.8 -1.2 -6.6 -1.5 -7.9 c -0.3 -1.1 0 -2.2 -0.6 -3.1 v -0.4 c -0.4 0.1 -0.9 0.1 -1.3 0.2 c 0.1 5.8 -4 5 -8.6 6.1 c -2.3 0.6 -5.1 1.3 -7.7 1.3 c 0 -0.8 0 -1.7 0 -2.5 c 0.2 -0.4 3.6 -1.9 4.2 -2.3 c 2.2 -1.5 4.5 -4 6 -6.3 c 1 -1.6 1.8 -3.7 2.3 -5.6 c 0.7 -2.4 0.7 -5.7 0.2 -8.1 c -0.4 -1.6 -0.2 -2.9 -0.8 -4.4 c -2.1 -5.8 -6.4 -10 -11.9 -12.3 c -2.5 -1 -5.3 -1.1 -8.3 -1.7 c -2.6 -0.6 -7.3 0.6 -9.2 1.2 c -9.2 2.7 -15.5 7.2 -18.4 16.1 c -1.1 3.5 -0.8 8.4 0.2 11.7 c 2.3 7.6 8.6 14.7 18.1 14.8 v 0.2 c 0.3 0.4 0.3 1.3 0.6 1.7 c -0.1 0.3 0 0.2 -0.2 0.4 c -0.8 0.5 -2 0.3 -3.1 0.6 c -2.3 0.6 -9.6 2.4 -11.3 0.8 c -1.1 -0.4 -1.8 -1.8 -1.9 -3.1 c -0.5 0 -0.7 0 -1 0.2 h -0.4 c 0.7 3.7 1.4 7.4 2.1 11.1 h 0.2 v 0.2 c 6.7 -1.2 13.4 -2.3 20.2 -3.5 c -1 -3.5 -1.9 -7 -2.9 -10.6 c -0.5 -0.8 -2.3 -0.7 -3.3 -1.2 z m 328.7 -21.3 c 0.4 1.1 1.2 2.8 2.1 3.5 c 0.4 0.3 0.6 0.2 1 0.6 c 6.4 0.5 8.9 -10.4 6.3 -16.7 c -0.5 -1.1 -2.5 -4.3 -4.4 -3.1 h -0.4 c 0.1 -0.3 0 -0.2 0.2 -0.4 c 0 -0.9 -0.1 -1.2 -0.4 -1.7 c -0.4 -0.1 -0.8 -0.1 -1.2 -0.2 c -0.2 0.2 0 0.1 -0.4 0.2 c 0.1 1.2 0.5 1.2 0.6 2.5 c -3.1 2.8 -5.7 9.6 -3.5 15.4 z m 2.1 -10.2 c 0.4 -1 1.3 -1.7 1.9 -2.5 c 0.4 -0.1 0.4 0 0.6 -0.2 c 1.5 0 1.9 0.3 2.7 0.8 c 1.5 3.5 1.7 9.5 -0.8 12.1 c -0.4 0.4 -1.1 0.6 -1.5 1 c -4 -0.3 -4.3 -7.6 -2.9 -11.1 z m -89.1 75.7 c -2.2 -1.3 -2.5 -8.1 -3.3 -11.1 c -1.6 -5.9 -2.3 -12.1 -4 -18.1 c -1.1 -3.8 -2.5 -7.8 -2.1 -12.5 c 0.7 -0.7 1.1 -1.6 1.9 -2.1 c 1.1 -0.8 2.8 -1.1 3.6 -2.1 c 0.1 -0.2 -0.1 -0.6 -0.2 -1.2 c -2.2 0.3 -4.3 1.7 -6.2 2.5 c -3.8 1.6 -7.6 2.6 -11.5 4.2 c -1.2 0.5 -2.5 1.4 -4 1.5 v 1.2 c 0.1 0.1 0.3 0.1 0.4 0.2 c 0.2 0.2 5 -1.9 6.5 -0.6 c 1.7 0.6 1.5 2.9 2.5 4.2 c -0.3 3 -3.3 7.6 -4.4 10.2 c -2.8 6.4 -5.7 12.6 -8.8 18.6 c -1.2 2.3 -2.6 6.5 -4.2 8.3 v 0.2 c -1 -1.4 -1 -5.1 -1.5 -7.1 c -1.7 -6 -2.8 -12.6 -4.6 -18.4 c -0.3 -1.1 -1.5 -6.2 -0.8 -7.3 c 0.2 -2.7 4 -3.8 6.1 -4.6 c -0.1 -0.4 -0.1 -0.9 -0.2 -1.3 c -3.4 0.5 -6.9 2.3 -10 3.5 c -2.9 1.1 -5.5 1.5 -8.5 2.5 c -1.4 0.5 -3.1 1.3 -4.8 1.5 v 0.2 h -0.2 c 0.1 0.5 0.1 0.8 0.4 1.2 c 0.8 0.5 5 -1.7 6.7 -0.4 c 2.7 0.9 2.8 5.2 3.6 8.1 c 2.3 7.7 3.5 16.2 5.8 24 c 0.6 2 1.9 8.2 0.6 9.8 c -0.7 2.1 -4.3 3 -6.3 3.8 c 0.1 0.4 0.1 0.8 0.2 1.2 c 3 -0.4 5.6 -1.8 8.3 -2.7 c 5.2 -1.7 10 -3.2 15 -5 c -0.1 -0.4 -0.1 -0.9 -0.2 -1.3 c -2.1 0.6 -3.8 1.2 -6.7 1.2 c -0.4 -0.3 -0.8 -0.6 -1.2 -1 c -0.3 -1 -0.6 -2 -1 -3.1 c 0.2 -2.4 3.3 -6.9 4.4 -9 c 3.3 -6.3 6.1 -12.6 9 -19.2 c 1.1 -2.5 3.7 -6.2 4 -9 c 0.9 0.5 0.6 2.1 1 3.3 c 0.7 2.3 1 4.8 1.7 7.3 c 1.4 4.9 1.9 10.1 3.3 15.2 c 0.5 1.9 1.3 5.1 0.4 7.1 c -0.9 2 -4.1 3.3 -6.2 4 c 0.1 0.4 0.2 0.9 0.4 1.2 c 0 0 4.4 -1.4 5.2 -1.7 c 5.4 -2.3 10.9 -4.7 16.3 -6.7 c -0.1 -0.5 -0.1 -0.9 -0.2 -1.3 c -1.4 0.3 -4.5 2.1 -6.3 1 z m 90.9 16.2 c -0.7 0.6 -1.7 0.8 -2.5 1.3 c -2.4 1.7 -5 4.7 -6.7 7.1 c -1.4 2 -2.6 4.1 -3.8 6.2 c -0.5 0.9 -0.7 2 -1.3 2.7 v 0.4 c 1.7 -0.3 2.7 -1.4 3.8 -2.1 c 3.2 -2 6.1 -3.8 9 -5.9 c 1.4 -1 2.5 -2.7 4 -3.7 c 0.1 -2.3 0.6 -4.1 -0.4 -5.8 c -0.6 -0.1 -1.3 -0.2 -2.1 -0.2 z m -2.3 6.9 c -1.2 0.9 -2.3 2.1 -3.5 2.9 c -1 0.7 -2.2 1.1 -3.1 1.9 h -0.2 c 0.6 -2 4 -5.4 5.6 -6.5 c 0.8 -0.6 1.9 -0.8 2.7 -1.4 h 0.8 c 0.2 0.2 0.2 0.2 0.4 0.4 c -0.2 1.5 -1.7 2 -2.7 2.7 z m -415.2 7.5 c -0.8 -2.4 -1.3 -4.8 -2.1 -7.1 c -0.4 -1.2 -0.3 -2.6 -1 -3.5 v -0.6 c 1.3 0.5 3.3 0.4 4.4 1.2 H 60.4 c -0.2 -1 -0.4 -2.7 -1 -3.5 c -0.6 -0.9 -4.3 -1 -5.4 -1.7 c -1.5 -1.2 -2.9 -4.6 -4 -6.3 c -2.7 -4.3 -6.3 -8.9 -10.4 -11.9 c -2.2 -1.6 -3.6 -3.3 -7.5 -3.3 c -0.4 0.3 -0.9 0.6 -1.3 1 c -0.9 3.8 0.7 10.9 2.9 12.7 v 0.4 c -0.9 -0.2 -1.9 -0.7 -2.5 -1.3 h -0.2 c 0 1.1 0.2 2.5 0.8 3.3 c 0.2 0.9 1.8 1.7 2.7 1.9 c 1.2 5 2.9 10.2 4.6 14.8 c 1.4 3.7 2.1 7.2 3.6 10.8 c 0.8 1.7 2.5 3 3.1 4.8 h 0.6 c -0.4 -1.6 -1.3 -3.1 -1.9 -4.6 c -1.8 -4.2 -3.2 -8.8 -4.6 -13.1 c -0.9 -2.8 -1.6 -5.6 -2.5 -8.3 c -0.3 -1 -0.2 -2.1 -0.8 -2.9 v -0.2 c 1.3 0.2 2.1 0.9 3.1 1.3 c 2.2 1 4.4 1.3 6.7 2.3 c 1.7 0.7 3.9 1.7 6 1.9 c 0.2 1.7 1.2 6.3 2.1 7.5 v 0.6 c -2.9 -2 -2.9 -4.9 -8.1 -4.4 c -0.3 0.3 -0.6 0.6 -1 0.8 c -0.5 1.2 -0.5 3.1 0 4.4 c 1.2 3.1 5.2 9.7 8.5 10.6 c 1.2 0.9 3.1 -0.2 3.6 -1.2 c 1.2 0.6 1.4 3.3 1.9 4.6 c 1 2.7 2.5 6.3 5 7.5 v 0.2 h 0.4 c -0.3 -2.2 -1.5 -4.1 -2.3 -6 c -1.7 -4.1 -3 -8.5 -4.4 -12.7 z M 52.5 297.5 c -2 -0.1 -3.8 -0.9 -5.4 -1.5 c -4.3 -1.6 -8.3 -3 -12.1 -4.8 c -0.5 -1.7 -3.7 -8 -1.9 -10.2 c 0.1 -0.2 0.3 -0.4 0.4 -0.6 c 0.4 -0.1 0.4 0 0.6 -0.2 c 5.9 0.7 11.9 7.9 14.8 11.9 c 1.1 1.6 2.1 3.9 3.7 5 z m 3.1 16.7 c -0.6 0.7 -1.2 1.4 -1.7 2.1 c -0.5 0.4 -1.1 0.5 -1.5 1 c -3.3 -0.1 -3.4 -3.3 -4.8 -5.4 c 0 -1.9 0.7 -1.9 1.5 -2.9 c 0.4 0 0.5 0 0.8 -0.2 c 3 0 3.7 1.4 5.4 2.5 c 0.3 1.1 0.5 1.6 0.4 2.9 z m 113 29.6 c -0.8 -1.3 -2.4 -1.7 -3.5 -2.7 c -0.3 -0.1 -0.2 0 -0.4 -0.2 c 2.5 -1.3 5.1 -2.7 7.7 -3.8 c 0.7 0.8 3.9 3.8 5 3.3 c 0.2 -0.1 0.4 -0.1 0.6 -0.2 c -0.1 -1.1 -0.1 -2.2 -0.2 -3.3 c -2.4 -2.4 -6 -4.4 -10 -5.2 v 0.2 h -0.2 c 0.5 1.3 1.9 2.6 3.1 3.3 v 0.6 c -2.3 0.3 -4.3 1.4 -6.3 2.1 c -1.4 0.5 -3.1 0.4 -4.2 1.2 h -0.6 c 0.8 -2.3 3.6 -4.2 5 -6.2 c 2.8 -3.8 5 -8.4 9.4 -10.6 c -0.1 -1.8 -5.2 -5.4 -7.1 -4.2 c -0.5 0.2 -0.1 -0.1 -0.4 0.4 c -0.3 0.7 0.7 1.6 0.4 2.7 c -0.4 1.5 -4 8.4 -5 9.2 v 0.2 c -2 -0.7 -3.5 -2.5 -5.4 -3.5 c 0.3 -1.8 1.8 -3.1 2.7 -4.4 c 2.2 -3.3 4 -6.5 7.3 -8.7 c 0 -2.6 -4.2 -5.2 -6.9 -5.2 c 0 1.2 0.6 1.8 0.4 2.9 c -0.7 3.1 -2.1 6.3 -3.3 9 c -0.8 1.8 -1.1 3.9 -2.3 5.2 c -0.3 0.1 -2.4 0 -2.9 -0.4 c -0.7 0 -1.4 0 -1.9 0.2 v 0.4 c 3.2 3.1 6.7 4.2 11.1 6.2 c -0.6 3.2 -3.8 5.3 -5.4 7.7 c -0.8 0 -1.5 -0.1 -1.9 -0.4 c -0.4 0.1 -0.5 0.1 -0.8 0.2 c 0.1 2.8 2.4 5.2 4.8 5.8 c 1.6 -1.8 3.6 -2.6 6 -3.6 c 2.2 2.3 2.8 5.5 3.6 9.2 c 0.4 1.6 -0.2 3.4 0.2 4.8 c 0.7 2.5 2.1 3.2 3.3 5 h 1.3 c 0.8 -4.5 -1.2 -8.9 -2.3 -12.5 c -0.3 -1.5 -0.6 -3.1 -1 -4.6 z m 303.5 -32.5 c -1.2 1 -2.8 1.4 -4 2.3 c -1.9 1.4 -3.7 3.2 -5.6 4.6 c -0.9 0.7 -2.1 1.2 -2.7 2.1 c -1 1.5 -0.8 3.9 -1.9 5.2 v 0.8 c 1.5 -0.6 2.3 -2.3 3.5 -3.3 c 1.5 -1.1 2.7 -2.6 4.2 -3.7 c 0.9 -0.7 2 -1 2.9 -1.7 c 0.6 0.1 0.6 0.2 1 0.4 c -0.1 4.9 -2.7 8.3 -4.2 11.9 c -0.5 1 -0.6 2.7 -1.3 3.4 c -0.4 0.4 -1.1 0.5 -1.5 0.8 c -1.3 1.4 -2.6 2.8 -3.9 4.2 c -1.2 1.7 -1.8 3.9 -3.1 5.6 c 0 0.6 0 1 0.2 1.3 c 0.2 0.2 0.5 0.3 0.8 0.4 c 2.5 -2.3 4.9 -4.3 6.9 -7.1 c 3.2 -4.4 4.8 -9.9 7.1 -15.2 c 1.5 -3.3 3.6 -6.6 3.5 -11.3 c -0.2 -0.2 -0.4 -0.5 -0.6 -0.8 h -1.2 z m -13.4 30.4 v 0.2 h -0.2 c 0.3 -2.3 2.1 -2.9 2.9 -4.6 h 0.4 c -0.2 1.9 -1.7 3.6 -3.1 4.4 z m -287.2 3.1 c -0.4 1.7 3.7 5.4 5 6.3 c 0.6 0.5 1.5 1.6 2.5 1.1 c 0.5 0 0.7 -0.1 1 -0.2 c 0.2 -0.5 0.6 -1.2 0.2 -1.7 c -0.1 -2.4 -6.4 -5.1 -8.6 -5.6 z m 18.4 14.8 c 0.3 0.2 0.6 0.1 1 -0.2 c 0.7 -0.6 0.3 -1.5 0.8 -2.3 c 1.1 -0.8 3 -0.6 4.4 -1 c 3.9 -1 8.5 -1 12.9 -1.9 c 2.1 -0.5 5.5 0.8 7.1 -0.2 c 0.2 -0.1 0.4 -0.1 0.6 -0.2 c -0.1 -2.5 -4.9 -3.6 -7.5 -2.9 c -1.2 0.3 -2.5 1 -3.6 1.3 c -0.9 0.1 -1.8 0.1 -2.7 0.2 c -0.3 -3.1 -1.8 -5.6 -1.9 -8.8 c 2.9 -0.1 6.5 -0.4 8.4 -1.5 c 0 -1 -0.2 -1 -0.6 -1.5 c -2.2 -0.5 -6 -0.6 -7.7 0.6 c -0.5 0 -0.7 0 -1 -0.2 c -1.1 -1.4 -0.6 -4.1 -1.5 -5.6 v -0.8 c 2.1 -0.4 5.4 -0.8 6.5 -2.3 c 0.2 -0.2 0.1 0 0.2 -0.4 c -0.2 -0.2 -0.2 -0.3 -0.4 -0.6 c -3 -0.8 -4.3 -0.2 -6.9 0.8 c -0.8 -2.6 0.2 -4.7 -2.5 -5.4 c 0.6 -1 2.5 -0.9 3.6 -1.3 c 1.9 -0.6 4 -1.4 5.6 -2.3 c 0.1 -0.3 0 -0.2 0.2 -0.4 c -0.1 -1 -0.4 -0.9 -0.8 -1.5 c -2.8 -0.2 -5 0.1 -6.5 1.5 h -0.4 c 0.2 -1.4 1.1 -3.5 1.9 -4.6 c 0.5 -0.8 1.5 -0.7 1.9 -1.7 h 0.2 v -0.2 c -0.4 -0.5 -0.8 -1 -1.2 -1.5 c -0.9 -0.6 -2.2 -0.7 -3.1 -1.4 c -1.3 0 -2.5 0 -3.3 0.4 c 0.1 0.7 0.4 1.2 0.6 1.7 c 0.5 2 -1.4 8.1 -2.1 9 c -0.6 0.8 -7.5 3.3 -9.4 2.7 c -0.4 -0.1 -1.7 -0.8 -2.1 -1.2 c -0.2 -0.2 -0.1 0 -0.2 -0.4 c 2.7 -2.6 4.7 -8.3 8.5 -9.4 c 0.1 -0.3 0.1 -0.6 0.2 -1 c -0.9 -1 -5.5 -5.8 -7.9 -4.2 c -0.2 0.1 -0.4 0.1 -0.6 0.2 c 0 1.6 0.8 2.9 0.4 4.6 c -0.9 3.5 -2.9 7.5 -4.6 10.4 c -1.1 1.7 -3.4 3.5 -3.5 6 c 3.1 -0.3 3.9 -3.6 6.3 -4.4 c 0.7 0.7 1.4 1.3 2.1 1.9 c 1 1.5 0.8 3.8 1.3 5.8 c 0.9 4.2 1.8 8.3 2.7 12.5 c 0.1 2.1 0.3 4.1 0.4 6.2 c 0.5 1.9 2 5.1 4 5.5 z m 6.1 -14.6 c 0.2 1.8 1.3 6.8 2.1 8.1 c 0 0.1 0 0.3 0 0.4 c -2.3 0.5 -4.7 1.2 -7.3 1.2 c -0.4 -2.7 -1.7 -5.1 -1.7 -8.1 c 2.9 -0.1 4.5 -1.2 6.9 -1.5 z m -11.1 -15.9 c 0.3 -0.5 5.4 -1.3 6 -1 c 2 0.9 1.3 3.9 2.5 5.8 c -0.4 0.9 -5.1 2.4 -6.5 2.5 c -0.3 -2 -0.6 -6.2 -1.9 -7.3 z m 8.8 7.3 h 0.2 c 0.4 1.7 0.6 4.7 1.5 6.2 c -0.7 1.7 -4.9 1.5 -6.5 2.5 c -0.7 -0.4 -1.6 -5.2 -1.5 -6.5 c 1.5 -0.1 5.3 -1.4 6.3 -2.1 z m -33.2 10.9 c -0.3 0.7 -0.3 1.7 -0.6 2.5 c -1.7 4.1 -2.2 4.9 0.4 8.8 c 1.2 0 1.3 -0.2 1.9 -0.6 c 0.8 -3.2 0.9 -9.3 -1.7 -10.8 z m 219 1.2 c -5.6 -1.4 -10.3 1.4 -16.1 1 c -0.6 -0.6 -1 -0.9 -1.3 -1.7 c -4.1 0.1 -8.5 9.2 -4.4 11.9 c 2.2 1.5 8.5 0.6 11.1 0 c 1.5 -0.3 3.8 -0.7 5 0.2 c 1.6 1.2 1.3 5.7 0.8 8.3 c -0.6 4.7 -1.3 9.5 -1.9 14.2 c -0.6 2.9 -1.1 5.8 -1.7 8.6 c 2.9 0 5.7 -3 6.6 -5.2 c 0.5 -1.3 0.2 -2.4 0.6 -3.8 c 1 -4 1.2 -8.8 2.1 -13.1 c 0.6 -2.7 0.2 -5.3 0.8 -7.9 c 0.4 -1.9 0.7 -8.2 0.2 -10 c -0.3 -1 -1 -1.7 -1.5 -2.5 z m -263 58 c -0.7 -0.5 -1.1 -1.4 -1.7 -1.9 c -2.3 -2 -5 -4 -7.5 -5.8 c -2.1 -1.4 -4.9 -2.3 -6.7 -4 c 0 -0.4 0.6 -1.4 0.2 -2.5 c -1.6 -4.3 -7.7 -9.4 -11.5 -11.7 c -1.8 -1.1 -4.7 -1.6 -6.3 -2.7 c -1.2 -0.1 -1.8 -0.1 -2.1 0.8 c -0.5 1.1 1 2.5 1.5 3.3 c 1.3 1.9 2.8 4 4.6 5.4 c 1.3 1 2.9 1.9 4 3.1 h 0.6 c -0.7 -2.1 -3 -3.2 -4.6 -4.4 c -1.5 -1.1 -2.2 -3.1 -3.5 -4.4 c 0.1 -0.6 0.2 -0.6 0.4 -1 c 5.3 0 8.7 4.9 11.1 8.1 c 1.1 1.4 2.8 2.2 2.9 4.6 c -0.6 0 -1 0 -1.3 -0.2 h -0.6 c 0.9 2.5 4 2.3 6.2 3.7 c 4.3 2.7 7.8 6.9 11.5 10.2 c 1.3 1.1 3.5 2.3 3.8 4.2 c -2.6 -0.1 -4.5 -1.6 -6.1 -2.7 c -3 -1.9 -7.8 -5.3 -9.8 -8.1 c -0.4 -0.5 -0.5 -1.3 -1 -1.7 c -0.5 -0.5 -1.3 -0.7 -1.7 -1.3 h -0.8 c -0.2 2 2 3.4 3.3 4.6 c 4 3.6 8.2 7 13.3 9.6 c 1.8 0.9 5.1 2.5 7.1 1.3 c -0.3 -2.8 -3.4 -5 -5.2 -6.3 z m 118.3 12.7 c -9.8 -6.7 -24.2 -13.5 -40.9 -13.1 c -0.8 0.5 -2.4 0.1 -3.5 0.4 c -1.4 0.4 -2.3 1.1 -3.3 1.7 c 0 4.7 7 7.3 10.9 8.3 c 2.3 0.6 4.4 -0.5 5.8 -1 c 1 -4 -3.8 -4.6 -6 -6.5 h -0.4 v -0.2 c 14.7 -0.6 25.8 3.5 34.2 9.8 c 2.1 1.6 4.5 3.8 5.6 6.3 c 0.4 0.9 0.6 2.5 0 3.3 c -0.8 2.1 -3.3 1.9 -5.8 2.5 c -5.6 1.3 -13.4 -1.9 -16 -4.4 c -0.5 0.9 0.2 2.3 -0.6 3.3 c -0.9 2.3 -3.8 1.7 -6.5 2.3 c -4.5 1 -11.4 -1.3 -14 -3.1 c -0.7 -0.5 -1.2 -1.4 -1.9 -1.9 c 0 -0.5 -0.1 -0.7 -0.2 -1 c 0.4 -0.4 0.9 -0.9 1.2 -1.3 c 5.5 -0.4 8.3 -0.1 11.5 2.9 c -0.1 0.4 0 0.4 -0.2 0.6 c -0.4 0.7 -1.2 0.8 -2.3 0.8 v 0.4 c 2 0 2.9 -0.3 4 -1 c 0.1 -0.4 0.1 -0.8 0.2 -1.2 c -0.7 -0.7 -1.1 -1.6 -1.9 -2.1 c -3.2 -2.1 -9.7 -3.1 -13.3 -0.8 c -0.6 2.7 1.1 4.2 2.7 5.4 c 3.1 2.4 5.8 3.7 10.2 5 c 1.4 0.4 2.7 0 4.2 0.4 c 1.4 0.3 3.7 0.4 5.2 0 c 2.4 -0.6 5.9 -3.2 3.1 -6.2 v -0.2 c 1.5 0.5 2.6 2 4 2.7 c 3.7 1.9 9.8 3.5 15.4 2.3 c 2.7 -0.6 5.5 -0.6 6.3 -3.1 c 0.9 -1.3 -0.3 -3.2 -0.8 -4 c -1.8 -3.2 -4.2 -5.3 -7.1 -7.3 z m -35.5 -8.8 c 0.7 0.5 1.1 1.4 1.7 1.9 c 0 0.5 0 0.7 -0.2 1 c -1.2 3.4 -8.3 0.9 -10 -0.4 c -0.5 -0.4 -0.7 -1.2 -1.1 -1.7 c 0.1 -0.4 0 -0.4 0.2 -0.6 c 0.5 -1.5 2 -1 3.3 -1.7 c 2.4 0 4.6 0.5 6.1 1.5 z m 178.3 1.9 h -1.9 c -1.3 1 -3.4 1.2 -4.8 1.9 c -1.3 0.7 -2.8 1.6 -4 2.5 c -1 0.7 -1.6 2 -2.5 2.9 c 0 1 0 1.1 0.8 1.3 c 0.2 0.2 0 0.1 0.4 0.2 c 0.2 -0.2 0.4 -0.3 0.6 -0.6 c 0.2 -0.1 -0.1 -0.5 -0.2 -1.1 c 1.9 -1.9 3.2 -2.9 6 -4 c 0.7 -0.3 2.2 -1.1 3.1 -0.6 h 0.4 c -0.1 1.9 -4.4 7.7 -5.8 8.6 v 0.6 c 3.5 -0.9 5.9 -8 8.3 -10.6 c -0.1 -0.4 0 -0.5 -0.2 -0.8 v -0.4 z m -15.4 14.2 c -1.1 1 -3.9 1.1 -5.2 2.1 h -0.2 c 0.5 -0.7 1.4 -1 1.9 -1.7 c 0.4 -0.5 0.5 -1.1 1 -1.5 c -0.1 -0.4 0 -0.4 -0.2 -0.6 v -0.4 c -5.6 -1 -15 3.8 -17.9 6.3 c -0.8 0.7 -1.2 1.6 -1.9 2.3 c 0 0.5 0.1 0.8 0.2 1.1 c 3.4 0.2 9.8 -1.9 10.6 -4.6 c 0.2 -0.1 0.1 0 0 -0.2 v -0.4 c -2.3 -0.1 -5.5 0.4 -6.9 1.7 h -0.2 c 1.3 -1.9 5.9 -3.6 8.4 -4.4 c 0.8 -0.3 2.7 -0.7 3.5 -0.2 c 0.2 0.1 0.4 0.1 0.6 0.2 c -0.5 1.9 -3.2 4.1 -5 4.6 v 0.4 c 3 -0.7 5.6 -2 8.3 -3.1 c 1.8 -0.7 3.8 -0.9 5.4 -1.9 c 1.1 -0.7 4.9 -5.9 5.2 -7.3 c -4.4 0.7 -4.8 5.1 -7.5 7.5 z m -15.2 3.8 v 0.6 c -0.4 0.2 -0.6 0.8 -1 1 c -1 0.6 -2.3 0.5 -3.3 1.2 c -0.4 0 -0.5 0 -0.8 -0.2 h -0.2 c 0.5 -1.6 3.7 -2.4 5.2 -2.5 z m -80.1 18 c 0.1 -0.2 0.1 -0.4 0.2 -0.6 c -4.7 -0.2 -9.5 -0.4 -14.2 -0.6 c -0.6 0.4 -1.5 0.2 -2.3 0.4 c -1 0.3 -2.1 0.7 -2.9 1.2 c 0.1 0.3 0 0.2 0.2 0.4 c 1.2 0.9 7.9 1 9.2 0 h 0.4 v -0.4 c -2 -0.6 -5.7 1 -7.3 0 h -0.2 v -0.2 c 5.1 -0.4 10.8 -0.2 16.1 -0.2 c -0.5 0.4 -1.6 0.2 -2.1 0.6 c -0.2 0.1 -0.4 0.1 -0.6 0.2 v 0.4 c 1.2 0.2 2.3 0.4 3.5 0.6 c 0.2 0.2 0 0 0.2 0.2 c -1.7 1.1 -6.1 0.7 -7.7 -0.2 v -0.4 c -0.9 -0.4 -4.8 0.4 -5.6 0.6 c -0.6 0.1 -1.3 -0.1 -1.7 0.2 c -0.8 0 -0.9 0.1 -1.3 0.4 c 0.1 0.6 0.2 0.6 0.4 1 c 1.2 0.3 3.4 0.3 4.8 0.8 v -0.2 h 0.2 v -0.2 c -0.7 -0.3 -2.7 -0.1 -3.5 -0.6 h -0.4 c 0.6 -0.5 6.9 -1.3 8.1 -0.6 c 0.3 0.1 0.2 0 0.4 0.2 c -1 0.2 -2.1 0.4 -3.1 0.6 c 0.1 0.3 0 0.2 0.2 0.4 c 0.3 0.2 0.9 0.2 1.5 0.2 c -0.2 0.4 -0.3 0.5 -0.6 0.8 c 0.1 0.1 0.1 0.3 0.2 0.4 c 2.7 0 5 -0.3 7.3 -0.8 c 1.4 -0.3 3 0.2 4 -0.4 h 1.5 v -0.4 c -2.6 0 -9.2 -0.3 -10.8 0.8 h -0.6 c 0.2 -0.2 0 0 0.2 -0.2 c 0.8 -0.9 2.3 -0.4 3.6 -0.8 c 2.1 -0.5 5.7 -1.4 7.5 0 c 0.5 0.3 0.2 0 0.2 0.6 c 0.5 0 0.9 0 1.2 -0.2 h 1.3 v -0.4 c -1.8 -0.4 -4.3 -1.2 -5.8 -2.1 c -0.8 -0.5 -0.5 -1.2 -1.9 -1.3 z M 71.7 94.1 c -0.4 1.6 -1.3 2.9 -1.9 4.2 c -1.3 3 -2.5 5.9 -3.6 8.8 c -1 2.4 -1.6 6.3 -3.1 8.2 v 0.4 c 2 -0.4 3.4 -2.4 4.6 -3.6 c 3 -3.1 9.3 -10.8 9.2 -16.5 c -0.3 -0.3 -0.6 -0.8 -0.8 -1.2 c -1.2 -0.3 -2.7 -0.4 -4.4 -0.4 z m 0.8 8.1 c -0.9 1.4 -1.4 2.9 -2.3 4.2 c -0.9 1.2 -2.2 2.2 -3.1 3.5 h -0.2 c 0.2 -1.5 1 -2.7 1.5 -3.8 c 1.1 -2.7 1.9 -5.4 3.3 -7.9 c 0.7 0 1.3 0.1 1.7 0.4 c 0.5 0.3 0.1 -0.1 0.4 0.4 c 0.4 1 -0.9 2.5 -1.3 3.3 z M 413.5 43.2 c -2 -2 -3.5 -4.6 -5.6 -6.5 v -0.2 c -1 0.4 -4.4 3.3 -5 4.2 c -1.2 -0.5 -1.9 -1.8 -2.9 -2.5 c -3.3 -2.5 -6.4 -5.7 -12.1 -5.6 c -0.7 0.6 -1.8 0.6 -2.7 1 c -2.6 1.1 -5.3 3.3 -6.3 6 c -1.2 2.9 0 7.2 1 9.4 c 1.9 4.4 5 8.1 7.7 11.7 c 2.2 3 4.7 6.1 8.8 7.1 c 4.6 1.2 6.9 -4.3 8.6 -6.4 c 1.8 -2.1 5.7 -2.6 7.1 -5.4 c 0.5 -1 0.2 -3 -0.2 -3.8 c -0.9 -2.1 -5.2 -7.9 -6.9 -9 c 0.1 -1.2 0.7 -1.2 1.1 -1.9 c 1.2 0.6 1.6 2.3 2.5 3.3 c 1.1 1.3 2.7 1.9 3.8 3.1 c 1.8 0 2.9 -0.5 3.8 -1.3 h 0.2 c -0.5 -1.3 -2.2 -2.2 -3.1 -3.1 z m -10.9 20.7 c -3.4 0.8 -5.1 -1.4 -6.9 -3.3 c -4.5 -4.5 -7.6 -10.2 -11.1 -15.8 c -1.2 -1.9 -4.3 -5.5 -2.7 -8.3 h 0.8 c 1 1.5 2.6 2.5 3.7 3.8 c 2.9 3.8 6.4 7.1 9.2 10.9 c 1.7 2.4 3.7 4.6 5.4 6.9 c 0.9 1.2 1.5 2.7 2.7 3.6 c -0.2 0.9 -0.6 1.3 -1 1.9 z m 2.9 -13.6 c 1.6 2.1 3.7 3.3 3.6 7.1 c -0.6 0.6 -0.8 1.1 -1.7 1.3 c -0.2 0.2 -0.1 0.1 -0.4 0.2 c -2.7 -4.5 -6.6 -8.3 -9.8 -12.5 c -1 -1.4 -2.6 -2.5 -3.7 -3.8 c -1.8 -2.3 -3.9 -4.2 -5.8 -6.3 c -0.6 -0.6 -0.8 -1.2 -1.5 -1.7 c 0.2 -0.4 0.2 -0.3 0.4 -0.6 c 3.3 0 4.8 2.2 6.7 3.7 c 4.7 3.5 8.6 7.9 12.1 12.7 z" style="fill: rgb(186, 175, 175)"/></svg>